<svg version="1.1" id="Layer_1" xmlns="http://www.w3.org/2000/svg" xmlns:xlink="http://www.w3.org/1999/xlink" x="0px" y="0px"
	 width="100%" viewBox="0 0 512 512" enable-background="new 0 0 512 512" xml:space="preserve">
<path fill="#000000" opacity="1.000000" stroke="none" 
	d="
M512.627686,379.778503 
	C513.000000,423.157410 512.965576,466.314911 513.076843,509.472046 
	C513.084290,512.374451 512.590881,513.088867 509.529205,513.087097 
	C341.232025,512.988892 172.934784,512.986389 4.637638,513.096619 
	C1.238755,513.098877 0.942379,511.995514 0.943454,509.139160 
	C1.006721,341.008575 1.010153,172.877975 0.921772,4.747418 
	C0.920128,1.619797 1.632390,0.920813 4.751055,0.922438 
	C172.881622,1.010044 341.012207,1.016940 509.142731,0.889755 
	C512.856018,0.886945 513.075317,2.020722 513.073120,5.141157 
	C512.987000,126.448288 513.000000,247.755493 513.000000,369.531342 
	C512.221619,370.650879 511.426636,370.541534 510.325439,369.750946 
	C508.166931,366.108002 508.621277,362.307037 508.073792,358.733490 
	C507.089142,352.306641 505.367432,346.070007 503.833862,339.382904 
	C500.354645,329.501556 495.672058,320.623627 490.539337,311.563171 
	C481.870789,299.749969 472.289093,289.324799 460.138733,280.920471 
	C454.178192,277.927277 452.256866,273.815521 453.514923,267.356964 
	C455.470367,257.318085 455.748749,247.038803 455.997650,236.382553 
	C455.896515,223.716751 454.684235,211.578400 452.732605,199.093185 
	C450.739960,187.795059 448.028381,177.106445 444.562683,166.205444 
	C440.417480,154.382584 435.292999,143.397614 429.785828,132.195023 
	C424.047058,122.021255 418.009583,112.475746 410.824005,103.260811 
	C407.711334,97.688629 403.198792,93.667870 399.305542,89.217339 
	C393.842224,82.972008 387.837189,77.156136 381.297119,71.441071 
	C370.403625,61.926819 358.607178,54.282784 346.396851,46.598923 
	C335.071442,40.294205 323.521179,35.326065 311.506226,30.445015 
	C297.241760,26.009335 283.220032,22.200075 268.409882,19.807693 
	C249.483002,17.934052 230.966934,17.519230 212.026321,19.430599 
	C203.041458,19.412798 194.886688,21.922222 186.689362,23.861500 
	C152.261719,32.006199 121.639076,47.632755 94.766830,70.756660 
	C71.997360,90.350082 54.187122,113.683563 40.978024,140.548630 
	C38.878609,144.818481 36.017025,148.797073 34.912155,153.956100 
	C29.324263,168.327103 25.212990,182.732956 22.510838,197.513214 
	C22.040882,200.083817 20.094912,202.368744 21.046473,205.610504 
	C19.396446,217.642197 19.075798,229.324249 19.344101,241.034561 
	C19.408495,243.845123 19.117870,246.627197 18.901228,249.843231 
	C20.620268,265.024597 23.385931,279.589600 26.397919,294.512817 
	C30.089783,304.513123 33.049419,314.353088 37.177315,323.780579 
	C39.438206,328.944061 42.538864,333.712433 44.401402,339.453949 
	C51.866039,352.202850 59.657459,364.299103 68.946472,375.797760 
	C78.020195,386.808044 88.013649,396.405609 98.802216,405.704102 
	C110.859116,414.546204 122.824203,422.897034 135.947235,430.126038 
	C149.116486,436.717804 162.568756,441.633972 176.502350,446.413208 
	C190.096710,449.449127 203.304871,452.428436 217.216309,453.968994 
	C229.262878,454.639648 240.886429,455.169769 252.957397,454.211731 
	C267.432373,452.960144 281.292358,450.707581 294.890381,446.966949 
	C296.969513,446.395050 299.012787,445.685089 301.604340,446.158020 
	C304.017517,446.802063 305.261719,448.281647 306.669525,449.752106 
	C311.947723,455.265198 316.952393,461.087860 323.567017,465.714996 
	C324.257202,466.191925 324.620972,466.499878 325.195923,467.107605 
	C325.625732,467.518402 325.803528,467.676910 326.242554,468.079773 
	C337.122955,475.541168 348.613373,481.021240 361.008728,485.555389 
	C374.484039,488.970581 387.785950,490.316040 401.683350,489.782471 
	C408.048859,491.123901 413.606598,488.695984 419.113708,487.386627 
	C458.027527,478.134613 485.527466,455.134094 500.949371,418.055573 
	C502.406677,414.551819 504.564514,411.297394 505.052246,407.010071 
	C506.872070,399.207947 508.499359,391.782074 508.854340,384.130157 
	C508.956055,381.937958 509.276886,379.705017 512.627686,379.778503 
z"/>
<path fill="#EE2726" opacity="1.000000" stroke="none" 
	d="
M510.560120,368.750732 
	C511.400482,369.558960 511.967834,370.117371 512.767578,370.337891 
	C513.000000,373.030609 513.000000,376.061188 513.000000,379.545898 
	C509.347931,380.055237 511.130005,382.891144 511.099335,384.317657 
	C510.930176,392.189087 509.614349,399.811768 506.914551,407.610474 
	C501.289062,414.687012 494.011322,419.415985 487.527100,425.042084 
	C485.558990,426.749725 483.403717,427.913483 480.503357,426.073914 
	C479.448944,424.127380 479.789062,422.564240 480.571625,421.030914 
	C486.939697,408.553619 491.145996,395.459930 491.888550,381.376434 
	C491.950226,380.206879 492.212555,379.089844 493.204712,377.837097 
	C498.073944,376.244476 500.677948,372.100555 504.538971,369.720764 
	C506.386597,368.581970 507.982422,367.121063 510.560120,368.750732 
z"/>
<path fill="#FAA239" opacity="1.000000" stroke="none" 
	d="
M33.419037,153.268738 
	C40.631157,133.058716 51.684647,115.250549 64.798706,98.549614 
	C71.667282,89.802383 79.270256,81.800087 87.348282,74.270882 
	C99.646339,62.808353 113.082626,52.859303 127.787476,44.542461 
	C146.104233,34.182781 165.366562,26.409492 185.828995,21.647249 
	C193.548950,19.850576 201.388153,18.566391 209.584442,17.107254 
	C211.794891,19.855135 209.908569,21.403259 208.155029,22.927040 
	C203.452545,27.013393 198.618042,30.942339 193.694839,34.758427 
	C192.391479,35.768692 190.973770,36.615204 190.235306,38.605984 
	C188.389755,41.023785 185.915558,41.517742 183.525665,42.246593 
	C172.530930,45.599682 161.696442,49.359764 151.315643,54.378078 
	C147.817093,56.069366 147.060684,57.878716 149.143036,61.323608 
	C155.266861,71.454468 152.416870,72.731316 144.064117,77.484413 
	C136.809769,81.612457 135.818146,81.249603 131.403091,74.260574 
	C130.958939,73.557472 130.377640,72.932755 130.046829,72.166695 
	C128.539871,68.677002 126.350632,68.375229 123.364487,70.497986 
	C117.122795,74.935043 110.954597,79.469070 105.216293,84.542671 
	C90.684814,97.390869 78.172142,111.993698 67.394547,128.549698 
	C58.047070,137.186981 48.125874,144.615875 38.699474,152.639038 
	C37.284733,153.843185 35.591320,154.610489 33.419037,153.268738 
z"/>
<path fill="#ED2024" opacity="1.000000" stroke="none" 
	d="
M480.538513,425.846558 
	C487.847443,423.554138 492.204346,417.558990 497.962616,413.485260 
	C500.637878,411.592651 502.773132,408.912415 506.484009,408.024872 
	C502.851807,422.818207 495.893738,436.117371 486.382111,448.123901 
	C474.432037,463.208496 459.615936,474.566742 442.085083,482.461700 
	C429.913361,487.943207 417.198151,491.153717 403.438171,491.902771 
	C401.618896,490.141571 402.356995,488.550385 403.641266,487.448822 
	C412.286438,480.033691 420.599884,472.195038 430.669678,466.034485 
	C448.664917,458.443268 463.041870,446.868286 474.312592,431.367645 
	C475.909546,429.171356 476.871704,426.175629 480.538513,425.846558 
z"/>
<path fill="#EF3227" opacity="1.000000" stroke="none" 
	d="
M360.342468,486.677307 
	C350.813782,485.297943 342.927704,480.585297 334.940613,476.268341 
	C331.548523,474.434967 327.915405,472.719910 325.093079,469.415741 
	C323.774384,466.841125 325.202942,465.358276 326.515076,463.822418 
	C329.020721,460.889648 332.248749,458.792480 335.477417,456.145752 
	C339.572083,455.001587 341.950775,457.773987 344.763672,459.326996 
	C347.603027,460.894684 350.599548,464.345795 353.463348,462.947449 
	C356.350067,461.537933 354.378571,457.225647 354.714722,454.210327 
	C355.388214,448.169037 354.694275,442.445862 350.229797,437.378296 
	C353.318054,430.446533 358.797455,426.681427 365.763489,424.120544 
	C373.635468,426.694885 376.100708,429.863892 376.246918,437.557007 
	C376.464447,449.002686 376.291626,460.451721 376.310730,472.317688 
	C376.193878,473.756378 375.913940,474.796387 375.106995,475.387939 
	C370.206696,478.980072 366.117096,483.622314 360.342468,486.677307 
z"/>
<path fill="#F99938" opacity="1.000000" stroke="none" 
	d="
M189.276749,38.494942 
	C189.964508,34.324818 193.194550,32.429581 195.883514,30.076263 
	C200.542053,25.999216 206.002319,22.834028 209.913040,17.489075 
	C224.844971,15.034940 239.783798,16.155655 254.679581,16.128429 
	C259.154022,16.120253 263.790710,16.547054 268.583801,18.083588 
	C270.713318,20.836756 268.889191,22.313944 267.161804,23.947149 
	C263.128693,27.760408 258.124786,30.358864 253.894409,34.575073 
	C249.828186,35.474625 248.181870,37.717823 248.331161,41.463482 
	C248.403671,43.283085 248.282059,45.114128 248.088196,46.933903 
	C247.759766,50.016678 246.064484,51.725204 242.992615,52.083008 
	C241.671143,52.236927 240.343613,52.299137 239.015121,52.295395 
	C229.478668,52.268555 226.351166,53.078724 226.557693,41.049969 
	C226.639587,36.279613 224.589294,34.938377 219.319046,35.591846 
	C211.416245,36.571724 203.524185,37.644711 195.719742,39.271442 
	C193.629501,39.707123 191.495010,40.494690 189.276749,38.494942 
z"/>
<path fill="#F99C38" opacity="1.000000" stroke="none" 
	d="
M33.002289,153.334076 
	C40.167397,150.108109 44.824429,144.107803 50.696663,139.717590 
	C55.688969,135.985245 60.185394,131.600479 65.801224,128.106903 
	C67.925476,126.289299 69.850159,126.799400 71.649803,127.846207 
	C81.047127,133.312424 84.892929,133.760773 76.912170,145.840668 
	C72.649086,152.293396 70.737144,152.776367 63.932991,148.744171 
	C58.382442,145.454880 57.696503,145.578461 54.993011,151.331665 
	C49.817341,162.345840 45.777328,173.787567 42.504707,185.503021 
	C42.057426,187.104202 41.750111,188.754211 40.441551,190.398376 
	C35.746601,193.509399 32.960835,198.212357 28.544668,201.047440 
	C25.775558,202.825165 23.880613,206.413895 19.453098,205.237839 
	C20.285124,192.344788 23.619884,180.175644 27.482214,168.158844 
	C29.053555,163.269928 30.092945,158.140671 33.002289,153.334076 
z"/>
<path fill="#EE2726" opacity="1.000000" stroke="none" 
	d="
M360.342194,487.009460 
	C363.209351,480.779572 368.689362,477.296326 374.772522,474.021637 
	C376.647278,471.449707 379.056061,471.809143 381.354462,472.130219 
	C389.126831,473.215973 396.929565,472.940613 404.705597,472.490875 
	C411.463562,472.100037 412.555450,470.644958 412.679108,463.829163 
	C412.751282,459.853607 412.404480,455.857330 413.374969,451.523834 
	C417.969452,447.714783 422.048981,443.878052 426.625671,440.653961 
	C428.635712,439.237976 430.590271,438.162567 433.121765,440.439117 
	C434.559235,449.626068 435.720337,458.431885 432.334290,467.528259 
	C425.310272,470.696899 420.631744,476.342102 415.035706,480.695282 
	C410.896027,483.915558 406.432709,486.918976 403.087097,491.515015 
	C388.663055,492.397858 374.376801,492.501770 360.342194,487.009460 
z"/>
<path fill="#F14D2C" opacity="1.000000" stroke="none" 
	d="
M457.541565,235.753860 
	C458.469116,247.971756 457.487244,259.818024 455.137207,271.567749 
	C454.774261,273.382324 454.797699,275.054230 457.027954,276.053741 
	C458.759460,276.829742 460.221649,278.206665 461.956177,279.634277 
	C462.606415,282.548370 461.478058,284.554932 459.482666,285.936310 
	C456.607056,287.927032 454.394287,290.627777 451.327820,292.935883 
	C448.621185,293.795502 446.675629,292.624207 444.880981,291.489899 
	C436.624542,286.271301 427.567902,282.975006 418.296112,280.174805 
	C416.986206,279.779205 415.803253,279.257599 414.619537,277.939453 
	C413.127258,274.841858 414.629944,272.911041 416.345825,270.976074 
	C419.223633,267.730774 423.150116,265.696442 426.327362,262.231964 
	C428.876740,260.613861 431.127777,261.532440 433.343933,262.086700 
	C436.114899,262.779724 437.491394,261.675415 437.642700,258.939728 
	C437.862305,254.969147 438.456055,251.065903 439.722961,246.919037 
	C443.865082,243.863449 447.050995,240.214859 450.971008,237.444931 
	C452.869354,236.103561 454.639252,234.486801 457.541565,235.753860 
z"/>
<path fill="#F1432A" opacity="1.000000" stroke="none" 
	d="
M303.327087,448.049133 
	C295.679810,448.048248 289.140808,451.469940 282.066315,452.538361 
	C273.030151,453.903046 264.111481,456.056488 254.446152,455.903198 
	C252.040375,453.176483 253.952484,451.414795 255.618973,449.877075 
	C259.396606,446.391357 263.168152,442.851532 267.589172,440.175964 
	C269.058105,439.286987 270.506561,438.603607 271.002655,436.413666 
	C274.620850,432.862518 279.244019,433.270325 283.368866,432.287842 
	C286.860107,431.456177 288.632324,430.422852 286.346130,426.704834 
	C285.367462,425.113251 285.137177,423.256042 285.875153,421.050446 
	C290.301605,417.229706 294.022339,412.996002 299.685211,410.838623 
	C302.034912,411.081818 303.508209,412.177124 304.359894,413.856750 
	C307.798553,420.638153 311.519714,427.251953 315.621643,433.654602 
	C316.064453,434.345825 316.112000,435.223358 316.143799,436.438171 
	C313.638641,442.388153 308.755798,445.285248 303.327087,448.049133 
z"/>
<path fill="#F4642F" opacity="1.000000" stroke="none" 
	d="
M135.328613,431.671997 
	C121.762413,425.292969 109.741524,416.897247 98.089020,407.418335 
	C97.111282,405.037140 98.355186,403.816650 99.658836,402.469696 
	C102.506195,399.527740 105.952408,397.338867 109.370331,394.542389 
	C111.911278,393.650452 113.540581,394.974060 115.182053,396.066986 
	C117.256348,397.448029 119.201447,399.016357 121.187538,400.523804 
	C127.109978,405.018768 127.605713,404.918243 131.158768,398.531189 
	C134.720749,392.128174 137.260468,391.367279 143.620789,394.797638 
	C144.207550,395.114105 143.484238,394.698608 144.065857,395.024445 
	C154.015030,400.598755 154.293320,401.455475 148.861130,411.501465 
	C147.692307,413.662994 146.999191,415.749298 148.076508,418.484589 
	C148.045090,421.890289 145.809906,423.350555 143.752167,425.042114 
	C141.082291,427.236877 138.471970,429.501373 135.328613,431.671997 
z"/>
<path fill="#F88D36" opacity="1.000000" stroke="none" 
	d="
M25.481754,296.255402 
	C21.836008,287.377350 20.761549,278.229065 19.077534,269.243134 
	C18.005087,263.520569 17.680862,257.657806 17.094641,251.427277 
	C20.558693,244.113678 27.714825,241.163010 32.788250,236.037659 
	C36.270802,232.519455 40.901344,230.371246 44.485794,226.360199 
	C51.544910,225.785294 52.948513,226.995361 53.257294,233.432709 
	C53.289234,234.098526 53.304893,234.765259 53.301121,235.431763 
	C53.251381,244.219131 54.015614,247.543274 42.470612,247.423264 
	C37.373325,247.370285 36.641300,248.785629 36.932793,253.924103 
	C37.538704,264.605133 40.369850,274.928619 41.635029,285.900726 
	C38.440952,290.481018 33.766159,292.795135 29.988909,296.160950 
	C28.858133,297.168579 27.269606,297.255066 25.481754,296.255402 
z"/>
<path fill="#F67A33" opacity="1.000000" stroke="none" 
	d="
M68.320465,377.134766 
	C59.829952,369.016327 53.741161,359.436066 47.936344,349.649017 
	C46.365219,347.000122 44.799820,344.347809 43.198669,341.346313 
	C45.988564,335.582153 51.448528,332.987183 56.068226,328.978210 
	C59.265659,325.957306 63.078835,324.567871 66.402260,322.405518 
	C66.956383,322.044983 67.612343,321.858063 68.257965,321.704590 
	C72.925095,320.595306 76.321686,323.653748 80.108856,332.363007 
	C81.857201,336.383636 81.036407,339.194031 76.907959,341.521271 
	C67.823975,346.641846 69.133278,346.236328 74.308083,354.336334 
	C76.851624,358.317688 81.305809,361.108795 81.797218,366.707275 
	C78.077789,371.325378 73.920586,374.938721 68.320465,377.134766 
z"/>
<path fill="#F78334" opacity="1.000000" stroke="none" 
	d="
M346.694092,44.948135 
	C355.166870,48.884968 362.555817,54.064854 369.817627,59.399754 
	C373.997040,62.470165 377.834839,66.005547 381.967468,69.641418 
	C382.400085,73.954315 378.611633,74.789032 376.621185,77.020821 
	C374.951294,78.893135 372.805145,80.173866 370.515259,81.853096 
	C367.792114,82.625069 366.055603,81.448921 364.310425,80.031616 
	C360.178925,76.676338 355.909027,73.500809 351.539154,70.457016 
	C348.855621,68.587852 346.670258,68.439278 345.145477,71.821518 
	C344.874878,72.421745 345.347504,71.762733 344.914093,72.259605 
	C342.517853,75.006416 342.061218,80.331726 337.272919,79.881538 
	C332.058258,79.391273 327.767609,76.100349 323.922363,72.623940 
	C322.347107,71.199821 322.070709,68.976997 322.975098,67.034256 
	C324.439484,63.888668 325.626007,60.524662 328.750854,57.998383 
	C334.459808,56.115704 336.726959,50.557682 341.344971,47.836277 
	C342.995270,46.863766 344.306915,45.318554 346.694092,44.948135 
z"/>
<path fill="#F2502C" opacity="1.000000" stroke="none" 
	d="
M217.290192,455.610352 
	C204.417664,455.457031 192.283524,452.411499 180.142502,449.507446 
	C178.877136,449.204773 177.544571,449.312531 176.139618,448.437347 
	C174.605545,445.277679 176.123825,443.526855 178.159988,441.843109 
	C181.548538,439.041107 185.038803,436.337250 188.220367,432.702820 
	C190.966721,431.659943 193.192657,432.684723 195.436951,433.115112 
	C203.916672,434.741180 212.392197,436.302032 221.042709,436.803436 
	C224.870728,437.025330 226.763657,435.558319 226.618134,431.742279 
	C226.161026,419.755768 230.127014,420.690521 238.785080,420.721649 
	C247.252411,420.752075 248.351883,421.977692 247.895020,430.692810 
	C238.103683,439.651642 228.460281,448.287628 217.290192,455.610352 
z"/>
<path fill="#F2542D" opacity="1.000000" stroke="none" 
	d="
M457.903320,235.535461 
	C453.234406,237.646332 450.107910,241.371292 446.353119,244.203674 
	C444.932434,245.275314 443.860809,246.840210 441.515015,246.973221 
	C437.176971,247.377991 433.179749,247.450119 429.182404,247.245712 
	C423.315735,246.945724 422.049927,245.619980 421.743622,239.607224 
	C421.709717,238.941528 421.693237,238.274796 421.695679,237.608246 
	C421.728638,228.573044 421.163300,225.488937 432.486633,225.565704 
	C437.505066,225.599747 438.510834,224.116852 437.996094,219.017227 
	C437.743896,216.518677 437.695221,214.030991 437.901306,211.092102 
	C440.463593,205.504349 444.248474,201.507507 448.993103,198.338577 
	C450.592072,197.270615 452.117004,196.484573 454.410400,197.623886 
	C456.951233,210.035233 458.532837,222.463638 457.903320,235.535461 
z"/>
<path fill="#F56E31" opacity="1.000000" stroke="none" 
	d="
M411.798187,101.719055 
	C417.915344,107.552582 421.643921,114.648384 426.013885,121.268387 
	C427.881439,124.097466 429.341125,127.195755 431.019104,130.533752 
	C431.827820,134.195145 429.805634,136.241196 427.557312,137.913284 
	C425.035217,139.788956 422.830597,142.018112 420.001343,144.058624 
	C415.666809,145.492020 412.349457,148.089249 408.649963,149.954773 
	C404.417206,152.089249 402.000854,151.573944 399.304779,147.684021 
	C397.693420,145.359161 396.278076,142.905884 394.946014,140.417435 
	C392.794434,136.397980 393.612213,133.692184 397.566986,131.174530 
	C406.025726,125.789566 405.997620,125.809944 399.993652,117.534737 
	C398.647675,115.679550 397.035889,113.876862 397.150696,110.959534 
	C399.489807,106.334427 403.498993,103.982353 407.305511,101.433487 
	C408.626587,100.548882 410.099731,100.546623 411.798187,101.719055 
z"/>
<path fill="#F99637" opacity="1.000000" stroke="none" 
	d="
M43.846878,227.789215 
	C43.211216,231.852249 39.743351,233.040283 37.312340,235.094025 
	C30.934223,240.482269 24.330540,245.603516 17.492439,250.913879 
	C16.891464,237.332733 16.582703,223.666733 18.027956,210.041550 
	C18.178560,208.621719 18.680038,207.239105 19.093206,205.417694 
	C24.954395,202.004166 29.240656,197.088333 34.301800,193.165710 
	C35.594757,192.163605 36.521580,190.690720 38.509064,190.080475 
	C41.304684,191.423508 40.584526,193.663879 40.208263,195.735413 
	C38.850006,203.213333 37.935219,210.747498 36.940392,218.278152 
	C36.321590,222.962341 37.111557,225.697540 42.139233,226.245926 
	C42.791813,226.317093 43.263092,226.903809 43.846878,227.789215 
z"/>
<path fill="#F78334" opacity="1.000000" stroke="none" 
	d="
M57.082466,329.783325 
	C53.242210,334.506622 48.938316,338.169830 43.500053,340.921570 
	C35.418167,326.955658 29.357029,312.224396 25.101379,296.387817 
	C29.119736,295.443451 30.995834,291.825165 34.064350,289.969116 
	C35.732014,288.960419 36.939724,287.145813 39.484024,287.024933 
	C42.106937,287.065704 42.846539,288.734619 43.421085,290.506927 
	C47.286560,302.430908 51.543514,314.203247 56.840454,325.580078 
	C57.401745,326.785645 57.756947,328.068115 57.082466,329.783325 
z"/>
<path fill="#F99236" opacity="1.000000" stroke="none" 
	d="
M254.136810,33.240685 
	C256.671387,28.054092 261.809204,25.976824 265.548431,22.357779 
	C266.716522,21.227236 268.303955,20.530537 268.913177,18.489677 
	C280.528748,18.834679 291.527313,22.053421 302.528198,25.233898 
	C305.608704,26.124500 308.627441,27.228651 311.858826,28.560783 
	C314.260254,32.511814 311.311707,34.324444 309.244110,36.183205 
	C306.487030,38.661812 303.283752,40.614494 300.052399,43.193939 
	C297.871399,44.220467 296.124268,43.582645 294.378845,43.115505 
	C282.897003,40.042488 271.359192,37.259808 259.489624,36.107723 
	C257.491302,35.913757 255.601379,35.341274 254.136810,33.240685 
z"/>
<path fill="#F35A2E" opacity="1.000000" stroke="none" 
	d="
M187.973511,433.766113 
	C188.035217,436.821960 186.261215,438.260406 184.420471,439.757843 
	C181.508942,442.126343 178.001785,443.888489 176.089630,447.793945 
	C161.853134,444.434265 148.426880,439.111542 135.324524,431.992035 
	C135.203827,426.836945 140.166580,425.951813 142.706131,422.973175 
	C143.844681,421.637726 145.356171,420.620239 146.873291,419.162598 
	C149.046875,416.918365 151.045700,418.025421 152.990845,418.925659 
	C162.779800,423.456390 172.815750,427.305267 183.231415,430.155182 
	C185.111252,430.669556 187.159775,431.151550 187.973511,433.766113 
z"/>
<path fill="#F56E31" opacity="1.000000" stroke="none" 
	d="
M67.977402,377.460205 
	C71.294136,372.763275 75.417381,369.390228 80.768150,367.033936 
	C82.994911,366.140106 84.345329,367.127686 85.485039,368.378876 
	C92.281059,375.839630 99.265228,383.097839 107.086678,389.516266 
	C108.589348,390.749359 110.146873,392.143341 110.012154,394.795288 
	C107.615257,400.503998 101.918404,402.443390 98.137131,406.821533 
	C89.450012,401.179138 81.891373,394.137726 75.241791,386.276276 
	C72.852432,383.451447 69.550591,381.344330 67.977402,377.460205 
z"/>
<path fill="#F67832" opacity="1.000000" stroke="none" 
	d="
M412.056519,101.607414 
	C406.274902,102.849747 403.331146,108.258141 398.185547,110.865044 
	C395.422485,111.839630 394.174011,109.957207 393.003052,108.517387 
	C386.762726,100.844170 379.613647,94.061859 372.533936,87.202759 
	C371.017944,85.734016 369.302551,84.273819 369.802124,81.445679 
	C372.613007,76.228912 377.517517,73.745926 381.815430,70.126251 
	C382.718170,70.124062 383.518524,70.106354 383.909485,70.497635 
	C393.732452,80.328712 404.090851,89.675484 412.056519,101.607414 
z"/>
<path fill="#F14B2B" opacity="1.000000" stroke="none" 
	d="
M217.430054,455.902252 
	C218.442993,451.333984 222.573578,449.343109 225.883759,446.739502 
	C232.224075,441.752594 237.634369,435.521240 245.481384,432.024933 
	C249.692978,437.905060 255.248810,436.957886 261.058960,436.142242 
	C264.506500,435.658234 268.199310,434.227234 271.821228,436.821350 
	C272.136963,439.546722 270.377991,440.553406 268.830139,441.866638 
	C263.793365,446.139771 257.855438,449.434875 254.080048,455.510651 
	C252.533844,457.265289 250.686676,457.040466 248.893402,456.993561 
	C238.547562,456.722992 228.157303,457.794647 217.430054,455.902252 
z"/>
<path fill="#F0412A" opacity="1.000000" stroke="none" 
	d="
M450.821960,292.460754 
	C451.909546,288.511536 454.918610,286.744263 457.547272,284.586761 
	C459.038849,283.362518 460.263824,281.813385 461.858826,280.181305 
	C472.924805,286.695282 481.479187,295.775238 488.993744,305.936859 
	C489.865387,307.115570 490.857758,308.205017 491.822083,309.674744 
	C488.942596,315.312592 484.899200,319.188049 478.395630,320.439819 
	C476.043579,320.311768 474.562378,319.233978 473.482727,317.731415 
	C467.946747,310.026764 461.177887,303.537811 453.914795,297.505524 
	C452.436951,296.278137 450.594666,295.166290 450.821960,292.460754 
z"/>
<path fill="#F88A35" opacity="1.000000" stroke="none" 
	d="
M299.886658,42.471741 
	C301.033417,38.453224 304.615753,37.265770 307.089142,35.004021 
	C308.899170,33.348846 311.026611,32.042126 311.965118,29.229168 
	C322.844299,31.726915 332.690735,36.784023 342.472046,41.991997 
	C343.888031,42.745914 345.300415,43.506554 346.878357,44.573975 
	C342.408112,50.443909 337.120819,55.252594 330.515778,58.973400 
	C323.168976,52.939209 314.453094,50.330330 306.099823,46.982925 
	C303.735291,46.035397 300.819000,45.852039 299.886658,42.471741 
z"/>
<path fill="#F35D2E" opacity="1.000000" stroke="none" 
	d="
M454.861908,197.215393 
	C448.828369,200.197296 444.482819,204.773407 440.124512,209.839081 
	C438.312195,210.255142 437.385437,209.228256 437.149567,207.872406 
	C435.164978,196.464249 431.793060,185.356064 429.987061,173.535675 
	C432.726044,170.103317 436.219940,168.096954 439.128113,165.396835 
	C440.910767,163.741760 443.084991,162.921097 445.794006,164.707031 
	C450.181824,174.426666 452.447083,184.374649 454.045166,194.505981 
	C454.168610,195.288589 454.600403,196.022568 454.861908,197.215393 
z"/>
<path fill="#F4642F" opacity="1.000000" stroke="none" 
	d="
M446.065796,164.569427 
	C443.102417,164.996628 440.904175,166.583984 438.854279,168.606934 
	C436.870880,170.564224 434.750580,172.392212 431.516968,172.971497 
	C429.253754,172.776199 428.389282,171.439957 427.721985,169.838852 
	C424.672058,162.521088 421.962921,155.059555 418.456085,147.933807 
	C417.774994,146.549850 417.590179,145.091248 418.661133,143.379547 
	C421.844757,138.199234 427.565674,136.144730 430.876343,131.188019 
	C437.624603,141.277939 442.243164,152.538544 446.065796,164.569427 
z"/>
<path fill="#EF2C26" opacity="1.000000" stroke="none" 
	d="
M510.900696,368.548401 
	C506.450562,369.636261 504.082886,373.300812 500.857086,375.667938 
	C499.200409,376.883606 497.995148,378.954407 495.192993,378.072144 
	C493.263000,377.033752 492.720032,375.422394 492.553436,373.769562 
	C491.692474,365.227600 490.128937,356.780670 489.330811,347.853271 
	C492.575623,343.507599 496.988770,341.120087 500.734039,337.945251 
	C501.798370,337.042969 503.116272,336.883118 504.780762,337.731567 
	C509.255798,347.580261 511.008606,357.664154 510.900696,368.548401 
z"/>
<path fill="#F03828" opacity="1.000000" stroke="none" 
	d="
M505.065613,337.571716 
	C501.361542,338.904053 499.489380,342.464325 496.342133,344.297119 
	C494.777283,345.208374 493.418030,346.463898 491.235901,346.967834 
	C488.260681,347.278015 487.599731,345.260101 486.883484,343.444275 
	C484.282745,336.850677 481.378296,330.406128 477.785706,324.285767 
	C476.908325,322.790985 476.553284,321.244598 477.598938,319.311584 
	C483.507172,317.866272 486.179016,312.257294 491.523376,310.092957 
	C497.226257,318.591583 502.530121,327.204620 505.065613,337.571716 
z"/>
<path fill="#F03A29" opacity="1.000000" stroke="none" 
	d="
M303.098846,448.427429 
	C305.415924,443.012787 310.881866,441.131531 314.826172,437.134949 
	C317.213257,436.021790 318.850861,437.107758 319.906158,438.581299 
	C323.647095,443.804901 328.817566,447.506287 333.454681,451.777130 
	C334.781677,452.999298 336.416687,454.050018 336.180054,456.545227 
	C335.263641,460.923859 330.960022,461.684723 328.895691,464.552948 
	C327.859528,465.992676 326.508820,467.205994 325.125916,468.813599 
	C324.785309,469.064423 324.619110,469.023346 324.210388,468.897705 
	C323.785767,468.689484 323.603577,468.565826 323.161072,468.239014 
	C315.362000,462.605194 308.913452,456.063751 303.098846,448.427429 
z"/>
<path fill="#EF3227" opacity="1.000000" stroke="none" 
	d="
M322.995514,468.269592 
	C323.172058,468.157532 323.421204,468.314575 323.808014,468.660004 
	C323.675385,468.709900 323.382874,468.606628 322.995514,468.269592 
z"/>
<path fill="#000000" opacity="1.000000" stroke="none" 
	d="
M336.395691,456.941406 
	C328.889160,450.730927 321.340240,444.988098 315.426880,437.100769 
	C309.739990,429.111694 305.153320,420.807709 300.933685,411.915955 
	C298.714600,411.673615 298.107391,410.098663 297.536591,408.531891 
	C294.078094,399.038300 292.263580,389.241821 292.091125,378.708801 
	C291.398468,362.786316 294.020782,347.944427 301.091431,333.593445 
	C304.361725,324.285767 309.855591,316.736511 315.823486,309.622864 
	C329.175018,293.707977 345.806152,282.582825 365.856415,276.758942 
	C368.566437,275.971802 371.241577,275.045685 374.538605,275.156616 
	C386.916229,271.398346 399.019135,272.232666 411.151337,274.015350 
	C412.581390,274.225464 413.389404,275.317322 414.660553,276.533752 
	C427.544983,280.034851 439.409332,284.821655 450.603943,292.056641 
	C460.798126,299.941101 469.941620,308.449219 477.573547,318.895142 
	C481.912140,327.411499 486.756744,335.405457 489.714874,344.281647 
	C489.969116,345.044525 490.076599,345.856323 490.566956,346.842102 
	C493.102386,356.916748 494.220886,366.945740 494.969604,377.456573 
	C492.520416,381.771545 494.381378,386.134216 493.527283,390.300110 
	C491.006470,402.595093 487.229614,414.328033 480.929810,425.596832 
	C468.852356,444.502838 453.229950,458.900391 432.436401,467.834167 
	C432.079712,458.958038 432.050446,449.964233 432.067200,440.506439 
	C432.169312,437.615967 434.223267,436.768097 435.776184,435.665039 
	C454.476562,422.381317 464.820831,404.321655 466.877228,381.501282 
	C467.199127,377.928894 468.836426,374.414124 467.249634,370.406677 
	C466.182556,357.112061 461.918610,345.292877 454.831970,334.048218 
	C448.326630,326.243439 442.270111,318.528229 433.392700,313.774078 
	C426.466858,310.065063 422.514008,312.233612 422.317017,320.023621 
	C422.027924,331.455200 422.722015,342.900238 421.943146,354.716919 
	C422.451874,356.909454 422.086578,358.749695 422.268951,360.555298 
	C422.827972,366.090454 420.360901,369.626129 415.416473,371.959442 
	C410.623566,374.221130 406.171326,377.151520 401.540771,379.732666 
	C398.420929,381.471710 395.271149,383.769348 390.949097,381.774353 
	C384.846497,377.950043 378.756531,374.938232 372.821289,371.669769 
	C369.034943,369.584747 367.034119,366.944916 366.887939,362.300232 
	C366.720978,352.037476 366.301819,342.187592 367.064270,331.943665 
	C366.969543,327.569092 366.819946,323.595612 366.646454,319.626282 
	C366.320740,312.173950 361.501160,309.692505 355.161743,313.766541 
	C338.801666,324.280426 328.409576,339.172241 323.505096,357.899780 
	C322.888672,360.253448 321.235809,362.409271 321.902832,365.432007 
	C320.026001,377.453735 322.169006,388.721344 325.222473,400.275940 
	C329.901764,412.744598 337.515289,422.683716 346.977905,431.354797 
	C348.515381,432.763672 350.578491,433.902710 350.882385,436.692261 
	C356.234955,439.442017 357.625702,443.574280 357.117615,449.242828 
	C356.586487,455.168610 356.998962,461.178955 356.998962,467.502563 
	C349.055817,465.916992 343.228363,460.814636 336.395691,456.941406 
z"/>
<path fill="#000000" opacity="1.000000" stroke="none" 
	d="
M418.656891,142.985229 
	C423.145264,152.753860 427.568115,162.295563 431.087799,172.620316 
	C435.003357,184.973694 437.973633,197.140808 439.598083,209.907867 
	C439.361694,214.942841 440.911743,219.588318 441.056305,224.352676 
	C441.138916,227.073532 440.432617,228.456970 437.514099,228.005051 
	C437.190216,227.954880 436.851715,227.996490 436.520020,227.999573 
	C423.035217,228.124939 423.111298,228.120514 423.930603,242.025925 
	C424.075531,244.485962 424.896606,245.127655 427.164459,245.036072 
	C430.641785,244.895645 434.131317,244.929398 437.610779,245.041245 
	C438.770935,245.078537 440.359467,244.281998 441.069702,246.573364 
	C440.772369,251.720963 440.448517,256.450043 439.963959,261.162628 
	C439.611572,264.589844 438.638397,267.176727 434.253998,265.028442 
	C432.254791,264.048828 429.973083,263.645782 427.425781,262.933777 
	C425.205719,263.829193 423.388062,264.062836 421.304321,263.543945 
	C416.489410,262.344879 411.575836,261.661530 406.636475,261.104065 
	C401.101624,260.479370 399.966583,259.055023 399.771179,253.064850 
	C401.143250,239.698181 399.985809,226.792038 399.128906,213.470001 
	C396.449615,199.813614 393.161163,186.757355 388.129395,173.797211 
	C383.085754,162.753769 377.935120,152.179230 370.947876,142.626785 
	C369.293488,140.364990 367.864594,137.964355 366.201904,135.312119 
	C357.399841,124.654541 347.740387,115.360367 337.089050,106.582367 
	C326.210815,99.036507 315.320007,92.201836 303.258972,86.614761 
	C291.351990,82.442680 279.910950,77.986801 267.401611,75.647125 
	C253.758926,73.232574 240.375214,73.150513 226.568542,73.285828 
	C220.635605,72.560165 215.396561,74.395485 210.088165,75.265762 
	C179.648911,80.256119 152.700272,93.030655 129.570984,113.302589 
	C104.943314,134.887756 88.377945,161.778412 79.639099,193.383194 
	C78.989807,195.731400 77.152969,197.791443 77.767288,200.879898 
	C74.262939,218.452454 73.264565,235.745972 75.068695,253.187225 
	C75.171478,254.180832 75.055206,255.173920 74.917931,256.576660 
	C77.848083,274.594971 82.918114,291.559265 90.306931,308.215363 
	C97.303558,320.707642 104.456078,332.658386 114.031479,343.393524 
	C121.670685,353.340546 131.552612,360.365143 140.942108,368.433044 
	C151.596359,375.593414 162.620850,381.382965 174.133606,387.063477 
	C188.003021,391.982574 201.732635,395.964813 216.349335,398.181946 
	C234.366821,399.910919 251.882935,399.439026 269.713226,396.170380 
	C270.959717,396.256226 271.809113,396.413940 272.599731,396.212555 
	C279.903717,394.351807 280.736877,394.770325 282.588226,401.769653 
	C283.766510,406.224335 284.982727,410.657471 286.612946,414.976929 
	C287.241241,416.641632 287.912811,418.396484 287.009216,420.642151 
	C287.125916,425.439880 290.584167,428.556244 291.483734,432.685913 
	C285.283905,434.116913 279.038483,435.558441 272.395508,437.083191 
	C264.464478,438.063446 256.927856,438.934814 249.399750,439.874268 
	C247.358566,440.128967 245.748337,440.126526 245.980408,437.334503 
	C246.102905,435.860504 245.982513,434.366333 245.901825,432.439636 
	C246.304001,423.001587 246.304001,423.001587 237.436005,422.999969 
	C228.998611,422.998474 228.998627,422.998474 229.001083,431.649017 
	C229.003433,439.913727 229.023361,439.506378 220.992264,439.113159 
	C210.044479,438.577148 199.423615,436.407471 188.399628,434.096893 
	C178.189270,430.993042 168.168381,428.441437 158.791153,424.025909 
	C155.139130,422.306274 151.451584,420.662048 147.414200,418.925049 
	C143.476471,417.834747 143.077744,416.129730 145.310287,413.086182 
	C147.306183,410.365265 148.610397,407.146729 150.361511,404.232941 
	C151.505661,402.329163 151.006256,401.425079 149.077377,400.503418 
	C146.014114,399.039612 142.912140,397.514832 140.187317,395.522461 
	C137.111649,393.273560 135.663071,395.116028 134.313568,397.301605 
	C132.956940,399.498657 131.506897,401.824951 130.648849,404.110443 
	C128.965515,408.594177 126.934425,407.738342 124.174423,405.610016 
	C119.673325,402.138977 115.170029,398.670776 110.327217,395.178802 
	C100.000610,386.426086 90.067818,377.641998 81.431961,367.097992 
	C76.569801,360.615082 71.448921,354.695679 67.325401,348.007538 
	C66.009628,345.873413 65.808464,345.087494 68.075249,343.950989 
	C70.833015,342.568390 73.335381,340.617706 76.173073,339.467407 
	C80.017197,337.909180 79.877357,335.730743 77.979118,332.813293 
	C69.321106,319.506500 74.496185,321.269623 59.766388,328.754425 
	C59.053745,329.116577 58.396400,329.587524 57.354656,330.086731 
	C49.718834,317.345642 44.889912,303.564087 40.972641,289.421967 
	C40.805775,288.819580 40.453384,288.268585 40.011005,287.345703 
	C38.764404,278.989044 36.413334,271.224823 35.465672,263.171478 
	C35.010384,259.302368 34.772495,255.398300 34.154346,251.520172 
	C33.125942,245.068161 33.524113,245.004700 40.027954,245.001724 
	C51.004631,244.996689 50.666805,244.981903 51.149841,233.939285 
	C51.379101,228.698166 49.695438,227.128418 44.442787,228.094376 
	C42.673443,228.113449 41.350456,228.019547 40.026917,228.010971 
	C33.531490,227.968918 33.214146,227.934570 34.074360,221.493057 
	C35.445026,211.229111 36.176762,200.848068 38.904663,190.402527 
	C42.914192,174.655121 48.086792,159.720810 55.143227,145.459656 
	C56.612061,142.491119 57.680725,141.917419 60.724411,144.050613 
	C70.801048,151.112915 70.485832,150.660721 77.329994,140.650269 
	C80.651810,135.791687 79.630219,134.178329 74.917511,132.354080 
	C72.088463,131.258987 69.524384,129.479370 66.478058,127.982483 
	C67.212723,122.254898 71.393761,118.299850 74.671143,114.040672 
	C88.740379,95.756744 105.085350,79.796631 124.392586,66.950005 
	C127.488831,64.889824 129.041489,65.471413 130.617096,68.202110 
	C131.589981,69.888237 133.000641,71.598091 133.470932,73.242729 
	C135.222076,79.366760 138.133148,78.379402 142.535172,75.948494 
	C151.870102,70.793495 152.600891,69.781174 146.445328,61.214695 
	C143.346558,56.902267 143.876312,55.199787 148.428345,53.115349 
	C161.412491,47.169704 174.542114,41.716747 188.803604,38.486359 
	C198.457413,36.540283 207.891403,34.835064 217.362076,33.366367 
	C220.283020,32.913387 223.311508,33.201881 226.276749,32.971043 
	C228.567810,32.792690 229.237274,33.823067 229.011398,35.885788 
	C228.939392,36.543251 228.954498,37.219303 229.009796,37.880154 
	C229.337936,41.802475 227.235321,47.841156 229.823486,49.182438 
	C233.645935,51.163364 239.159546,49.848328 243.950592,50.008743 
	C245.894852,50.073841 246.026138,48.915916 246.003174,47.454185 
	C245.963989,44.959503 245.995392,42.463718 245.996094,39.968399 
	C245.998062,33.026096 245.997849,33.026096 253.548920,32.903656 
	C269.295105,34.705639 284.414246,37.458519 299.564514,42.065399 
	C309.550262,45.792118 319.229065,49.259476 328.323761,54.090862 
	C329.879456,54.917297 332.459808,55.572899 330.214264,58.635880 
	C328.264160,62.005905 326.319672,64.986923 324.475891,68.028961 
	C323.372070,69.850082 324.170898,71.046524 325.903534,72.008743 
	C329.585724,74.053635 333.254059,76.133606 336.823425,78.366516 
	C338.267761,79.270042 338.562164,78.901955 339.234619,77.508026 
	C340.781189,74.302208 342.909637,71.365311 344.327728,68.112518 
	C345.815308,64.700264 347.542419,64.649048 350.214050,66.691544 
	C356.522797,71.514664 362.907745,76.238106 369.611206,81.060379 
	C376.642273,87.915352 383.332245,94.703690 390.001709,101.512161 
	C392.753937,104.321762 395.205597,107.377037 397.584961,110.880463 
	C401.080261,115.350426 404.276794,119.661545 407.462158,123.980934 
	C409.042633,126.124084 409.335297,127.729874 406.260712,129.035080 
	C403.142059,130.358994 400.402069,132.590302 397.266541,133.854721 
	C394.310608,135.046722 395.243134,136.641281 396.150177,138.414200 
	C396.517731,139.132523 397.254089,139.652252 397.704315,140.339798 
	C399.837677,143.597458 400.477448,149.237411 404.507416,149.407089 
	C407.775574,149.544678 411.208893,145.908691 414.556580,143.925491 
	C415.735870,143.226898 416.693878,141.814713 418.656891,142.985229 
z"/>
<path fill="#000000" opacity="1.000000" stroke="none" 
	d="
M415.422607,450.700745 
	C415.111481,457.135986 414.958984,463.273987 415.041687,469.408783 
	C415.081421,472.356262 414.408600,473.652191 411.009491,474.133057 
	C399.294464,475.790436 387.658569,475.347839 375.559875,473.968811 
	C373.766357,472.439758 373.992188,470.589966 373.993835,468.778107 
	C374.002930,458.786865 373.742188,448.786530 374.092804,438.807587 
	C374.320587,432.325012 371.797577,428.199341 365.460388,425.992249 
	C357.375885,425.492615 352.920929,419.912384 348.386597,414.813629 
	C342.607758,408.315369 338.332825,400.855621 336.245270,391.862427 
	C331.923553,378.131714 333.180420,365.126648 338.780945,351.990295 
	C340.606323,346.537842 343.508484,342.204865 346.831177,338.107086 
	C348.027924,336.631134 349.376556,335.364594 351.364563,335.725677 
	C353.691010,336.148224 353.434204,338.353577 353.991913,340.450867 
	C354.470306,350.927979 354.508453,360.983429 354.055481,371.435791 
	C354.548798,375.322571 356.915283,377.262909 359.817932,378.800690 
	C366.120544,382.139679 372.286346,385.721100 378.705902,389.597656 
	C382.251770,391.479431 385.617676,392.935211 388.736969,394.812683 
	C392.578613,397.124908 396.264740,396.949921 400.035034,394.838593 
	C409.867096,389.332764 419.742859,383.906799 429.475159,378.220825 
	C433.228790,376.027802 434.628571,372.899780 434.710968,368.769653 
	C434.859802,361.308777 434.383728,353.837921 435.055908,345.982635 
	C435.033905,344.926575 434.874359,344.275360 434.905457,343.631042 
	C435.040527,340.830627 433.720184,336.995392 437.328308,335.994751 
	C440.601685,335.086945 442.146179,338.570709 443.828491,340.899231 
	C444.203796,341.418732 444.425415,342.053741 445.126343,342.876862 
	C451.395020,352.302216 454.212341,362.433624 455.189056,373.181885 
	C455.466034,376.230164 454.764465,379.092041 453.977325,382.359985 
	C453.452271,394.941467 448.275604,405.203613 440.429565,414.158905 
	C435.047516,420.301819 429.138977,425.953125 421.531525,429.451294 
	C417.986847,431.081299 417.465607,434.271149 417.229889,437.799042 
	C416.948303,442.013885 418.514008,446.497955 415.422607,450.700745 
z"/>
<path fill="#F03F29" opacity="1.000000" stroke="none" 
	d="
M337.790161,391.718811 
	C341.738068,401.570526 346.343964,410.627991 354.161530,417.588470 
	C357.423859,420.493195 360.549469,423.687347 364.923492,425.666321 
	C359.736481,428.508759 356.132996,433.285187 351.167175,436.878265 
	C338.786011,428.124359 329.205841,417.227081 323.983215,402.508911 
	C325.237244,397.293854 332.626801,391.476257 337.790161,391.718811 
z"/>
<path fill="#EF2C26" opacity="1.000000" stroke="none" 
	d="
M415.517792,450.972839 
	C415.111725,446.363892 415.233612,441.717682 414.952759,437.095978 
	C414.644501,432.023254 416.803864,429.252197 421.318390,426.757935 
	C438.266083,417.394653 448.830200,403.162201 452.096771,383.405853 
	C455.014893,377.841675 459.720276,374.590424 464.273224,371.180573 
	C465.478790,370.277649 466.745453,369.594818 468.680359,369.847168 
	C471.009033,372.021027 470.079529,374.661835 469.920166,376.969269 
	C468.470978,397.952698 461.291229,416.463135 445.472382,430.899658 
	C441.658447,434.380341 437.811066,438.032532 432.470032,440.013123 
	C427.435883,441.654022 424.562897,445.792572 420.533600,448.314087 
	C419.017120,449.263062 417.877686,450.872253 415.517792,450.972839 
z"/>
<path fill="#F2542D" opacity="1.000000" stroke="none" 
	d="
M401.539246,252.750122 
	C400.532471,256.872406 402.389008,258.837128 406.011078,258.874359 
	C413.073975,258.946899 419.778748,260.897522 426.818939,262.559845 
	C426.347015,266.078796 423.737793,267.577393 421.438324,269.415680 
	C419.024139,271.345764 416.554688,273.284302 415.081360,276.511108 
	C407.264404,275.844696 399.572540,274.658508 391.704041,274.919800 
	C385.990051,275.109589 380.410492,275.920868 374.414551,276.900635 
	C371.830444,274.156403 373.303101,272.107300 375.339325,270.439606 
	C382.150146,264.861511 388.941742,259.259613 395.769745,253.702408 
	C397.391357,252.382614 399.110443,251.484283 401.539246,252.750122 
z"/>
<path fill="#F14B2B" opacity="1.000000" stroke="none" 
	d="
M287.247925,421.010498 
	C283.791718,415.542938 282.181610,409.549225 280.710175,403.466156 
	C278.958405,396.223969 278.815308,396.258575 271.387573,397.903809 
	C269.467987,396.119232 269.861725,394.392242 271.345184,393.044708 
	C277.172180,387.751801 283.052948,382.512817 289.523407,377.994385 
	C290.660034,377.200684 291.900909,376.895477 293.537903,377.754333 
	C295.182190,389.141754 296.442383,400.304230 300.863708,411.186829 
	C296.069763,414.217834 293.103821,419.374908 287.247925,421.010498 
z"/>
<path fill="#F35A2E" opacity="1.000000" stroke="none" 
	d="
M401.900146,252.545563 
	C395.957672,254.947021 392.373047,260.062561 387.508240,263.422882 
	C383.439697,266.233185 379.778046,269.631683 375.927612,272.759094 
	C374.845428,273.638092 374.167786,274.722107 374.025391,276.480652 
	C362.825378,279.908997 351.999298,283.677856 342.057281,289.921509 
	C325.135254,300.548645 312.412201,314.774231 303.419739,332.870911 
	C290.684601,345.653595 276.497406,356.182312 262.621338,367.068237 
	C261.242767,368.149719 260.532898,369.548767 259.104370,370.983398 
	C249.136566,373.906555 239.327103,373.681274 229.088409,372.688904 
	C226.197937,368.962494 226.512772,366.774902 229.903809,363.697083 
	C233.688110,360.262329 238.113297,357.596252 241.873901,353.566345 
	C244.838776,351.729279 248.117050,350.745331 248.833694,346.609222 
	C252.816910,343.175262 255.867874,339.278381 259.873810,336.375854 
	C261.925049,334.889526 263.785767,333.339020 266.871735,334.157227 
	C269.282471,335.798370 268.881683,338.090424 269.251526,340.191956 
	C269.606384,342.208588 267.891418,345.776764 271.394867,345.771454 
	C274.481506,345.766754 278.265045,345.110046 279.636749,341.310333 
	C280.935120,337.713776 282.047638,334.056183 283.517761,330.513123 
	C294.785919,303.356628 313.124542,282.693542 339.358826,269.115204 
	C342.061432,267.716400 346.065308,267.677124 346.796753,263.190063 
	C346.560028,259.628357 348.488739,257.560791 350.722198,255.792831 
	C355.634857,251.904083 360.344025,247.766251 365.349579,243.989182 
	C367.434082,242.416229 369.454193,241.195572 372.452393,242.520691 
	C374.899719,245.387787 374.147095,248.418350 373.881561,251.361160 
	C373.681183,253.582123 372.378784,256.217499 376.049805,256.816193 
	C379.457520,257.371948 382.126373,255.614639 382.459259,252.151901 
	C383.253174,243.893127 384.387451,235.627380 383.404968,227.299484 
	C383.267487,226.134369 383.058838,225.000580 383.534119,223.486664 
	C386.667725,219.924515 389.694305,216.730072 393.273071,214.182404 
	C395.310577,212.731949 397.173553,210.471375 400.527252,211.751862 
	C403.023071,225.310989 403.293579,238.679184 401.900146,252.545563 
z"/>
<path fill="#F2542D" opacity="1.000000" stroke="none" 
	d="
M259.148499,369.172668 
	C259.540985,366.016083 262.213501,365.114716 264.029480,363.586395 
	C275.543213,353.896301 287.198120,344.373383 298.858154,334.858673 
	C299.845978,334.052643 301.212250,333.710480 302.757416,333.097229 
	C299.988129,341.526947 296.833862,350.017761 295.527069,359.016602 
	C294.658173,365.000031 293.612213,370.988495 293.902557,377.542145 
	C285.490662,383.485168 277.580048,389.487732 271.033447,397.494446 
	C266.793915,399.077881 262.459229,399.481781 258.146088,400.149445 
	C245.611328,402.089844 233.091141,401.319427 220.545578,401.043701 
	C219.146957,401.012909 218.055161,400.397766 216.414581,399.921387 
	C213.856461,397.079803 215.767593,395.500366 217.519608,393.543060 
	C220.818161,389.858154 225.836411,388.014069 228.491730,383.128235 
	C234.244186,381.014221 239.934967,382.146423 245.503220,381.870117 
	C253.701920,381.463318 261.691376,380.095184 269.688904,378.528320 
	C270.839020,378.302979 271.965851,377.937134 272.877777,377.171387 
	C274.962158,375.421143 275.058289,372.977234 274.391266,370.745728 
	C273.604218,368.112640 271.424133,369.658478 269.737946,369.755951 
	C266.256012,369.957306 262.704773,372.625916 259.148499,369.172668 
z"/>
<path fill="#F03A29" opacity="1.000000" stroke="none" 
	d="
M436.559265,345.713806 
	C436.888336,354.328247 436.885437,362.658722 437.016663,370.987030 
	C437.107391,376.742584 432.959656,379.230988 428.856079,381.552338 
	C419.479431,386.856628 409.918640,391.835480 400.543518,397.142395 
	C396.100281,399.657501 392.028717,399.821747 387.689148,396.976349 
	C384.693176,395.011871 381.430023,393.454834 378.118591,391.411469 
	C377.627533,390.500458 377.327118,389.736420 377.730865,389.214447 
	C381.071198,384.895447 384.666748,380.879059 390.745300,379.830170 
	C393.119019,380.672668 394.938507,380.763580 396.983337,379.581726 
	C403.478119,375.827820 410.079712,372.254639 416.699493,368.723053 
	C419.554871,367.199707 420.405121,364.977020 420.043915,361.894073 
	C419.813202,359.925140 420.018433,357.905151 420.097656,355.453064 
	C422.592377,350.973419 426.088409,348.051422 429.964844,345.534241 
	C432.031158,344.192444 434.148071,343.647156 436.559265,345.713806 
z"/>
<path fill="#F2502C" opacity="1.000000" stroke="none" 
	d="
M352.449402,340.244232 
	C352.060944,338.867096 351.954132,337.736938 351.786682,335.965210 
	C346.994293,340.632355 344.019135,345.954163 340.990723,351.674500 
	C336.359283,356.104370 331.563110,359.828461 326.918762,363.732544 
	C325.113983,365.249634 323.292847,366.684021 320.445068,365.242889 
	C319.869141,356.720093 323.228149,349.268616 326.597168,342.201904 
	C332.621887,329.564667 341.967926,319.413025 353.811401,311.787689 
	C356.735229,309.905182 359.723907,307.574524 363.717590,309.867126 
	C367.787628,312.203552 369.372620,315.519897 369.038239,320.098999 
	C368.820831,323.076752 368.978760,326.081848 368.900024,329.536194 
	C365.903870,334.090607 361.704865,336.743805 357.784332,339.703522 
	C356.281250,340.838165 354.606140,341.458191 352.449402,340.244232 
z"/>
<path fill="#F0412A" opacity="1.000000" stroke="none" 
	d="
M436.901611,345.560394 
	C432.273834,345.359528 429.538788,348.555145 426.537445,351.039093 
	C424.750641,352.517853 423.189514,354.249969 420.501343,354.923340 
	C420.110443,342.335571 419.970215,329.672638 420.034851,317.010712 
	C420.064209,311.262177 425.019470,307.914337 430.462646,309.846436 
	C439.493958,313.052216 445.733521,319.895599 451.916260,326.744171 
	C453.429718,328.420624 454.638977,330.371704 456.019714,332.545898 
	C456.980621,335.269196 455.391205,336.544739 453.898529,337.881836 
	C451.108551,340.381012 448.611572,343.303345 444.327576,344.135010 
	C441.867523,341.706116 439.781525,339.302032 436.969147,336.060791 
	C436.969147,339.559296 436.969147,342.340698 436.901611,345.560394 
z"/>
<path fill="#F03828" opacity="1.000000" stroke="none" 
	d="
M443.983093,344.473907 
	C447.097534,339.719788 451.986694,337.251617 455.865112,333.180145 
	C462.854065,340.393707 465.453705,349.800720 467.988190,359.231415 
	C468.847321,362.428223 469.252869,365.685181 469.020691,369.441986 
	C463.995911,374.655792 458.391907,378.726654 452.490936,382.914490 
	C454.700409,369.155121 450.192169,356.817810 443.983093,344.473907 
z"/>
<path fill="#F14B2B" opacity="1.000000" stroke="none" 
	d="
M320.079834,365.416016 
	C325.084808,363.770111 327.735352,359.351990 331.709198,356.793762 
	C334.419800,355.048767 336.420441,352.068237 340.463104,352.004944 
	C336.008667,364.756958 334.281097,377.739777 338.063904,391.527649 
	C332.824402,394.148468 329.396637,398.990234 324.181732,401.886353 
	C319.374176,390.392365 317.462036,378.355591 320.079834,365.416016 
z"/>
<path fill="#F14B2B" opacity="1.000000" stroke="none" 
	d="
M352.097565,340.461426 
	C356.137512,339.009094 358.797821,336.017151 361.865631,333.651581 
	C363.791565,332.166443 365.586639,330.462982 368.479736,330.025085 
	C368.877197,340.688110 368.922882,351.378571 368.900818,362.533203 
	C366.446808,368.085632 361.684296,370.711456 357.477417,373.898376 
	C356.070465,374.964172 354.451965,375.256592 352.467285,374.216919 
	C352.120331,362.971771 352.073853,351.948700 352.097565,340.461426 
z"/>
<path fill="#F0412A" opacity="1.000000" stroke="none" 
	d="
M352.201935,374.337463 
	C358.588440,371.986786 362.395813,366.112183 368.508118,363.081604 
	C368.658722,365.937683 369.882294,367.634735 372.663666,369.043335 
	C378.856476,372.179565 384.773651,375.860046 390.955811,379.635742 
	C386.846375,383.480621 382.584320,387.008484 378.136566,390.821777 
	C370.083496,388.063690 363.376129,382.858124 355.827545,379.205994 
	C354.071869,378.356598 353.109467,376.452667 352.201935,374.337463 
z"/>
<path fill="#F99637" opacity="1.000000" stroke="none" 
	d="
M76.433044,200.262329 
	C76.596596,191.573456 80.294312,184.080948 82.962097,176.301682 
	C89.007614,158.672897 98.742867,143.006287 110.754715,129.069031 
	C123.217628,114.608414 137.668808,102.212227 154.523346,92.654228 
	C169.204407,84.328781 184.690491,78.506210 200.967758,74.534920 
	C208.573380,72.679314 216.361496,71.854446 224.566544,71.095413 
	C227.028519,74.071159 224.848358,75.890968 223.062531,77.443626 
	C218.592499,81.329979 214.236496,85.386490 209.226395,88.596565 
	C208.086563,89.326859 206.960220,89.925461 206.367462,91.628082 
	C204.275101,94.655029 201.104019,95.007469 198.305069,95.789139 
	C170.945679,103.429985 147.908478,118.042145 128.893311,138.978790 
	C117.851158,151.136749 109.172356,164.890167 102.894035,180.121582 
	C101.953804,182.402649 101.218735,184.854904 98.997009,186.839813 
	C93.493858,188.523743 90.810669,193.376114 86.537941,196.072922 
	C83.475975,198.005539 81.309433,201.996521 76.433044,200.262329 
z"/>
<path fill="#F88D36" opacity="1.000000" stroke="none" 
	d="
M75.982086,200.358215 
	C82.618355,197.800934 86.745506,192.399765 91.941650,188.479340 
	C93.543343,187.270889 94.916954,185.887405 97.463943,186.003967 
	C100.695984,188.498032 98.860237,191.259521 98.050827,193.770508 
	C93.950951,206.489304 92.601036,219.661896 91.385376,232.857498 
	C90.990005,237.149170 91.570557,241.445419 91.615692,246.146530 
	C87.863663,250.362671 84.738167,254.666626 80.153107,257.522552 
	C78.088898,258.808319 76.187302,260.000671 73.464890,258.272461 
	C71.405159,247.131821 71.806671,236.170731 72.104065,225.260361 
	C72.329567,216.987167 73.547096,208.746140 75.982086,200.358215 
z"/>
<path fill="#F78334" opacity="1.000000" stroke="none" 
	d="
M73.093170,258.410095 
	C77.878304,257.723602 80.577827,254.069351 83.924179,251.533371 
	C85.738167,250.158661 86.918976,248.005844 89.511292,247.079773 
	C91.278267,247.469757 91.905464,248.599075 92.057198,249.986740 
	C93.866051,266.529419 98.788780,282.240936 104.717422,298.091858 
	C101.515366,304.694672 97.300362,309.591980 89.501518,310.221558 
	C81.505508,295.186279 76.362915,279.565369 73.973267,263.048553 
	C73.767220,261.624420 73.342964,260.231842 73.093170,258.410095 
z"/>
<path fill="#F88F36" opacity="1.000000" stroke="none" 
	d="
M205.326874,91.479897 
	C205.935318,86.869240 210.181259,85.855019 212.746948,83.217857 
	C216.608551,79.248672 221.994705,76.883110 224.914886,71.488556 
	C239.259918,70.596931 253.486176,70.804337 267.829315,73.544037 
	C269.179779,76.442451 267.606628,78.023842 265.925812,79.444260 
	C261.221130,83.420166 256.522858,87.420815 250.410339,90.091965 
	C236.700851,90.252335 223.410248,90.254845 210.290268,92.856590 
	C208.624588,93.186905 206.967224,93.122520 205.326874,91.479897 
z"/>
<path fill="#F35D2E" opacity="1.000000" stroke="none" 
	d="
M228.828644,383.775208 
	C228.262039,390.053558 222.294434,391.276428 219.198135,395.073090 
	C218.112930,396.403778 216.127060,397.005707 216.024811,399.483826 
	C204.654068,399.391052 193.917984,396.163605 183.260300,392.630737 
	C180.040314,391.563324 176.914200,390.212738 173.370804,388.912109 
	C170.974823,385.375732 173.640976,383.524719 175.730728,381.867493 
	C178.836380,379.404785 181.761749,376.763428 185.043015,373.908203 
	C187.453979,373.078949 189.357147,373.794525 191.223541,374.425598 
	C201.937729,378.048492 212.988419,380.129913 224.151367,381.709778 
	C225.783066,381.940735 227.497086,381.911255 228.828644,383.775208 
z"/>
<path fill="#F67832" opacity="1.000000" stroke="none" 
	d="
M89.200378,310.346527 
	C94.309921,307.304626 98.669525,303.607330 102.864166,299.179169 
	C105.448830,298.364807 106.387352,300.297729 107.160301,301.788879 
	C112.232018,311.573090 118.442810,320.602478 125.055649,329.376770 
	C125.978340,330.601044 126.679527,331.889160 126.767189,333.843018 
	C124.874382,340.312561 118.829666,345.461823 113.240517,345.246857 
	C105.797890,338.216766 100.579239,329.967285 95.358925,321.742676 
	C93.107010,318.194794 91.263298,314.387817 89.200378,310.346527 
z"/>
<path fill="#F4642F" opacity="1.000000" stroke="none" 
	d="
M400.899231,211.587860 
	C395.075562,214.567245 391.188568,219.728195 385.491913,222.913620 
	C382.427826,221.961655 382.462769,219.277756 382.180756,217.166016 
	C380.708130,206.140076 377.879456,195.481979 374.136261,185.036758 
	C373.804565,184.111115 373.698914,183.104614 373.854889,181.695374 
	C376.618317,177.182465 380.678223,174.633072 384.568115,171.893158 
	C386.034576,170.860229 387.572784,170.603119 389.522491,171.770630 
	C394.976471,184.656281 398.631378,197.730133 400.899231,211.587860 
z"/>
<path fill="#F56E31" opacity="1.000000" stroke="none" 
	d="
M389.811798,171.646011 
	C385.918365,172.412506 383.687622,175.543289 380.794586,177.627838 
	C379.197571,178.778534 377.483368,179.766571 375.494873,180.910995 
	C373.182251,181.042435 372.230835,179.716660 371.505188,178.165619 
	C366.807709,168.124878 361.209900,158.606445 354.916901,149.489822 
	C354.139557,148.363678 353.741272,147.137329 353.893219,145.390564 
	C357.190094,140.343124 361.787140,137.191376 366.681213,133.926788 
	C376.503784,144.645432 383.030792,157.182220 389.012115,170.051773 
	C389.215210,170.488800 389.517853,170.879562 389.811798,171.646011 
z"/>
<path fill="#F67832" opacity="1.000000" stroke="none" 
	d="
M366.907227,133.577118 
	C364.762177,139.163116 360.020355,141.871674 355.226257,144.962006 
	C352.805603,145.981766 351.263824,144.865921 350.098938,143.459106 
	C343.532532,135.529022 336.028778,128.566269 328.220215,121.904434 
	C327.211945,121.044266 326.253326,120.119873 325.707336,118.443329 
	C325.268005,112.807388 329.647949,110.871689 332.752899,108.078194 
	C334.097412,106.868568 335.616730,105.820183 337.685608,104.993607 
	C348.884949,113.056000 358.742371,122.235107 366.907227,133.577118 
z"/>
<path fill="#F78234" opacity="1.000000" stroke="none" 
	d="
M337.887817,104.562912 
	C337.546539,107.764175 335.109222,108.941963 333.158386,110.648949 
	C330.887939,112.635628 327.877350,114.059708 327.032440,117.768066 
	C325.058960,119.194893 323.352295,118.395729 321.910095,117.293709 
	C313.049255,110.522797 302.915619,106.061104 292.986664,101.231133 
	C291.453857,100.485481 290.076019,99.695740 289.263611,97.704788 
	C289.068085,95.451706 290.115692,94.212151 291.539368,93.217079 
	C295.461212,90.475960 298.561981,86.552727 303.691284,84.949867 
	C315.571533,89.554047 326.142303,95.853813 335.981750,103.419052 
	C336.482727,103.804230 337.143005,103.982231 337.887817,104.562912 
z"/>
<path fill="#F88A35" opacity="1.000000" stroke="none" 
	d="
M303.872009,84.548798 
	C300.517975,89.956581 295.326263,93.118538 290.194061,96.868881 
	C288.442291,99.102356 286.421509,98.720009 284.515076,98.078850 
	C274.729309,94.787727 264.678223,92.678726 254.488342,91.159805 
	C252.951202,90.930679 251.574722,90.472649 250.880280,88.477325 
	C257.146912,84.339157 262.454285,79.448303 267.874329,74.185028 
	C278.063171,75.070724 287.535248,78.161484 296.823792,81.945160 
	C299.051086,82.852455 301.396271,83.470459 303.872009,84.548798 
z"/>
<path fill="#F46730" opacity="1.000000" stroke="none" 
	d="
M184.983490,374.785614 
	C184.237991,379.039673 180.807617,380.587982 178.211502,382.803925 
	C176.311523,384.425720 174.182678,385.764099 173.079956,388.509460 
	C161.548187,383.771332 150.670975,377.678436 140.112335,370.412689 
	C138.960312,367.646210 140.336441,365.996765 141.913284,364.431946 
	C144.742081,361.624756 147.878876,359.204895 151.600174,356.924896 
	C153.887741,356.292725 155.548157,357.031128 157.092789,358.030609 
	C164.871933,363.064117 173.243530,366.990112 181.490372,371.150421 
	C182.966980,371.895294 184.512817,372.569061 184.983490,374.785614 
z"/>
<path fill="#F56E31" opacity="1.000000" stroke="none" 
	d="
M152.192627,357.551056 
	C149.023605,362.667877 143.359421,364.780579 140.125916,369.813660 
	C130.304443,362.748047 120.534218,355.525208 113.027870,345.356140 
	C117.814445,342.243927 122.594299,339.281464 125.327843,333.534302 
	C127.497437,332.765808 129.083908,333.803467 130.236511,335.195465 
	C135.766190,341.873566 142.885391,346.772308 149.313385,352.440063 
	C150.826401,353.774139 152.470901,354.899231 152.192627,357.551056 
z"/>
<path fill="#000000" opacity="1.000000" stroke="none" 
	d="
M152.397644,357.939209 
	C145.562820,352.291748 139.010773,346.782410 132.645721,341.064880 
	C130.186737,338.855988 128.151962,336.174866 125.685974,333.428864 
	C116.800156,322.741943 109.002342,311.789429 103.362648,299.064209 
	C97.937508,286.984589 93.688148,274.807404 91.524002,262.003052 
	C90.735847,257.339844 89.714745,252.674545 89.907310,247.440186 
	C87.649879,226.258392 91.210983,206.295975 97.896751,186.380051 
	C103.507996,171.777298 110.501732,158.313354 119.945229,146.161667 
	C132.374084,130.168472 147.246872,116.970634 164.893265,107.091232 
	C177.364456,100.109184 190.498734,94.566483 204.839600,91.453247 
	C219.905884,88.540260 234.873428,87.401451 250.422577,88.024605 
	C255.425125,89.810722 260.317841,89.509384 265.016113,90.414398 
	C273.252075,92.000870 281.158142,94.684235 289.568024,97.065216 
	C298.501587,101.559860 307.503387,105.114998 315.649475,110.301880 
	C319.319824,112.638901 322.778137,115.308899 326.646667,117.973732 
	C337.145081,125.892929 346.000641,135.028000 354.575134,144.902527 
	C357.802002,150.984253 362.246582,155.946609 365.487885,161.726181 
	C368.895508,167.802322 371.982971,173.994705 375.000580,180.661407 
	C380.218414,194.282990 383.953186,207.887421 385.099487,222.562820 
	C386.855927,234.126236 385.880432,245.150452 384.160278,256.194672 
	C383.772247,258.686066 382.846344,259.339172 380.740875,258.981110 
	C377.278961,258.392334 374.062134,261.038849 370.356873,259.600006 
	C370.758392,254.391327 372.356628,249.227310 371.903809,243.442596 
	C370.564667,241.810471 369.764282,240.377609 369.832672,238.612198 
	C370.193787,229.287567 368.565826,220.104691 367.798584,210.449402 
	C364.910461,200.873596 362.657318,191.520676 358.434143,182.442505 
	C355.157532,174.560547 350.787476,167.706223 346.277496,160.941360 
	C344.895752,158.868790 343.392120,156.882523 342.074219,154.365723 
	C332.969910,143.891357 323.112396,134.748566 311.866089,126.595970 
	C301.835602,120.703979 292.174164,114.899460 281.224854,111.687660 
	C278.691620,110.944580 276.045227,110.551300 273.282959,109.228676 
	C262.149353,106.213974 251.239716,104.225220 240.031052,104.305450 
	C238.202606,104.318542 236.371017,104.316757 234.164825,103.953560 
	C203.415665,105.894501 175.989426,115.351250 152.433029,135.169373 
	C129.860382,154.159851 115.753990,178.204163 108.833939,206.663574 
	C108.216644,209.202271 106.416618,211.475571 107.096893,214.702713 
	C104.833946,228.445221 104.822540,241.822968 106.572128,255.635620 
	C108.955414,268.553040 112.220734,280.784912 117.839882,292.664520 
	C123.047333,304.148346 130.001694,314.074493 137.886887,323.820007 
	C147.042328,333.974487 157.065277,342.543640 168.787674,349.635803 
	C179.867767,355.938446 191.207077,360.755432 203.424652,364.511292 
	C210.318741,365.625824 216.699295,367.465149 223.315933,367.864990 
	C225.104675,367.973083 226.466217,368.734161 227.706482,370.541260 
	C238.130020,371.128143 248.265732,371.532562 258.626648,369.027069 
	C265.285675,369.107971 271.080078,366.934601 277.000977,365.188049 
	C277.000977,367.907288 276.566345,370.701813 277.090820,373.302887 
	C278.205688,378.831940 274.723175,380.231201 270.653015,380.916779 
	C261.626831,382.437256 252.641815,383.982452 243.396103,384.287720 
	C238.834961,384.438293 234.367035,383.798279 229.426987,384.094971 
	C214.061417,383.605011 199.774750,379.972809 185.378021,375.105591 
	C173.813446,370.258698 162.959976,364.735199 152.397644,357.939209 
z"/>
<path fill="#000000" opacity="1.000000" stroke="none" 
	d="
M250.448090,346.609528 
	C250.567154,351.608276 249.370361,354.776184 243.414154,354.096130 
	C238.009216,357.503235 232.498962,356.558655 227.193817,355.658813 
	C224.093109,355.132935 222.797073,352.437958 223.111572,348.716858 
	C222.354660,338.867462 222.506500,329.515137 222.968399,319.697113 
	C222.554688,309.953583 222.400467,300.675964 223.055298,290.982849 
	C223.131210,290.069366 223.096344,289.570923 223.135834,289.080231 
	C223.783081,281.034607 220.960281,275.239075 213.212814,271.738770 
	C208.356308,269.544617 205.247437,264.942078 201.571442,260.624390 
	C197.843750,249.944595 190.424835,246.880157 180.066086,248.177307 
	C175.370560,248.765305 170.497055,248.595978 165.272675,248.001022 
	C151.553009,248.742554 138.267105,248.275757 124.985130,248.242996 
	C123.338028,248.238937 121.648155,248.199997 119.733467,247.029572 
	C116.351433,238.877533 117.286942,230.852219 118.687050,222.918686 
	C119.251465,219.720535 122.230423,218.897141 125.278961,218.788864 
	C132.557037,218.530350 139.835541,218.703674 147.585480,218.667755 
	C152.512390,219.699921 156.964371,218.518448 161.428894,218.614243 
	C171.056229,218.820816 180.692520,218.613693 190.323318,218.699173 
	C195.074661,218.741333 198.566315,217.197220 200.994965,212.891678 
	C204.774506,206.191238 210.763550,201.680435 217.200836,197.763870 
	C220.218231,195.928024 222.450348,193.652542 222.546524,189.928116 
	C222.880432,176.996704 222.441177,164.056473 222.840179,150.674591 
	C222.621918,141.945053 222.546539,133.666122 222.726868,125.390572 
	C222.881042,118.314949 223.706543,117.672768 230.581024,116.528809 
	C235.394684,115.727783 240.094162,115.834854 244.884872,116.594589 
	C251.280197,117.608788 252.211090,118.544586 251.934799,124.857018 
	C251.905807,125.519196 251.837372,126.174919 252.044556,127.312698 
	C252.486099,140.832153 252.489182,153.872131 252.070084,167.350998 
	C252.388779,174.710312 252.335541,181.638565 252.309021,188.562851 
	C252.291321,193.184082 254.187668,196.531815 258.358002,198.466232 
	C261.744507,200.037094 264.372864,202.465729 267.016144,205.559296 
	C269.856537,208.004288 272.288727,210.294922 273.979462,213.198914 
	C276.441559,217.427826 280.128174,218.767014 284.860809,218.746460 
	C292.660858,218.712570 300.472321,218.346146 308.712830,219.054779 
	C322.237793,218.202698 335.332581,218.767075 348.421021,218.729324 
	C350.245239,218.724060 352.072632,218.863724 354.212158,219.901398 
	C356.532379,221.820847 357.056183,224.072205 357.180298,226.441391 
	C357.441803,231.431213 357.494507,236.429825 357.192444,241.415802 
	C356.884277,246.502151 355.540771,247.950287 350.491211,248.160889 
	C342.343231,248.500748 334.184845,248.537979 325.572571,248.050461 
	C312.324310,248.577164 299.527710,248.222748 286.735565,248.326828 
	C282.132538,248.364304 278.970001,250.092651 276.822876,254.397308 
	C272.662445,262.738434 266.769531,269.622009 258.349518,274.041534 
	C254.107437,276.268158 252.213531,279.660950 252.272980,284.561737 
	C252.395706,294.680542 252.439484,304.806061 252.203735,315.364929 
	C252.356552,323.398712 252.377380,330.992859 252.322784,338.586792 
	C252.303772,341.230530 252.315643,343.895996 250.448090,346.609528 
z"/>
<path fill="#000000" opacity="1.000000" stroke="none" 
	d="
M347.629822,262.518066 
	C349.273438,262.985748 350.548370,263.138672 351.930756,263.304504 
	C351.467834,266.343048 349.065216,267.050812 347.067657,267.947937 
	C332.696564,274.402069 319.726044,282.974030 309.054077,294.549652 
	C296.407715,308.266846 286.961945,323.995911 282.059143,342.168915 
	C281.440216,344.463043 280.515137,345.793701 278.186554,346.447144 
	C274.613586,347.449799 271.127655,348.762726 266.974091,350.155426 
	C266.974091,345.121613 266.974091,340.522522 266.903992,335.461731 
	C265.376648,333.704285 264.807281,332.036865 264.790649,330.134888 
	C264.716949,321.709686 264.205933,313.277527 265.146973,304.412170 
	C264.349731,298.843384 264.727417,293.717224 264.902740,288.593597 
	C264.988831,286.077728 266.201599,284.266815 268.226715,282.814728 
	C275.026215,277.939392 280.773712,272.031311 285.242615,264.939575 
	C286.990265,262.166199 289.379852,260.822235 292.654388,260.800629 
	C298.113770,260.764618 303.573608,260.474030 309.484222,261.019775 
	C320.011292,260.319214 330.098694,260.698456 340.178986,260.709778 
	C342.597168,260.712494 345.201416,260.299866 347.629822,262.518066 
z"/>
<path fill="#F4612F" opacity="1.000000" stroke="none" 
	d="
M348.081787,262.509888 
	C335.307892,262.880219 322.617340,262.927612 309.462799,262.903961 
	C306.892151,259.334961 309.727905,257.564575 311.754272,255.886566 
	C315.577362,252.720749 319.270874,249.368881 323.724274,246.406708 
	C332.936737,246.111572 341.876587,245.942596 350.812469,246.064316 
	C353.851959,246.105713 355.361267,245.564133 355.058105,242.070755 
	C354.477936,235.385025 355.917877,228.585953 353.977112,221.537506 
	C353.576172,220.576416 353.194153,219.998245 353.291107,219.323715 
	C353.872131,215.280792 364.076813,207.989807 368.776886,208.704468 
	C372.389648,219.780807 372.125092,230.930389 371.901733,242.534546 
	C365.680328,245.140106 361.561554,250.153671 356.686005,254.031006 
	C353.651886,256.443909 349.805084,258.237366 348.081787,262.509888 
z"/>
<path fill="#F35D2E" opacity="1.000000" stroke="none" 
	d="
M266.551819,302.758362 
	C266.880341,313.356232 266.926392,323.713959 266.903168,334.535889 
	C261.785583,336.297485 259.035706,340.790771 255.023453,343.534668 
	C253.561508,344.534485 252.624481,346.246521 250.489014,346.916809 
	C250.117706,336.641357 250.069565,326.283508 250.092804,315.461670 
	C252.494537,309.675171 257.278748,306.808990 261.661804,303.552734 
	C263.015930,302.546783 264.469299,301.679962 266.551819,302.758362 
z"/>
<path fill="#F35D2E" opacity="1.000000" stroke="none" 
	d="
M224.538788,347.737244 
	C224.359970,352.739624 226.657471,354.369568 231.187057,354.052460 
	C234.798981,353.799591 238.443924,354.018188 242.536774,354.096802 
	C241.032806,359.332794 235.796005,361.211395 232.206390,364.742706 
	C230.525864,366.395966 228.806717,367.822968 228.075897,370.497589 
	C219.740540,369.794434 211.452209,368.929596 203.167633,366.445496 
	C201.414673,364.070007 202.184479,362.223419 203.760132,360.794342 
	C208.808258,356.215698 214.065445,351.877502 219.586151,347.873016 
	C221.022476,346.831116 222.595459,346.468170 224.538788,347.737244 
z"/>
<path fill="#F88F36" opacity="1.000000" stroke="none" 
	d="
M105.448288,214.236786 
	C107.177742,197.287720 113.675659,182.174866 121.839600,167.699509 
	C128.245911,156.340561 136.398315,146.269791 146.034531,137.533539 
	C164.197845,121.066544 185.136276,109.834953 209.329346,104.967506 
	C216.862274,103.451950 224.407288,102.175591 232.552567,102.096161 
	C234.694122,104.057396 234.179382,105.983719 232.567551,107.386948 
	C225.886154,113.203690 219.159195,118.976410 211.935760,124.126793 
	C211.130310,124.701088 210.103607,124.827263 208.723053,124.798019 
	C192.063934,129.051666 177.533875,136.637604 164.432510,147.232880 
	C148.400452,160.198212 137.399490,176.646729 129.715622,195.550110 
	C129.157104,196.924118 128.489059,198.280197 127.164078,199.634644 
	C122.826431,200.941772 120.944687,204.784531 117.825706,207.075989 
	C115.205177,209.001221 112.542488,210.974899 110.200264,213.300949 
	C108.987801,214.505005 107.519341,215.226990 105.448288,214.236786 
z"/>
<path fill="#F78334" opacity="1.000000" stroke="none" 
	d="
M250.455627,169.281189 
	C250.117706,155.639404 250.069916,142.282349 250.094849,128.461487 
	C255.887314,118.799301 264.633484,113.051422 273.865448,107.329971 
	C287.941528,110.839996 300.939575,116.148705 312.677002,125.013947 
	C314.677551,127.743362 313.153748,129.582565 311.397827,131.135010 
	C308.340851,133.837769 305.258484,136.558090 300.948181,138.125397 
	C297.545563,138.426331 295.166687,136.781052 292.792938,135.337021 
	C287.524353,132.131943 281.838867,129.867645 276.087250,127.787125 
	C270.207520,125.660248 269.376526,126.296608 269.315063,132.423752 
	C269.243713,139.542664 269.340576,146.662750 269.269409,153.781723 
	C269.246399,156.085007 269.437836,158.430740 268.284851,160.979721 
	C264.717316,163.417114 261.430267,165.574982 258.342987,168.078705 
	C256.225739,169.795776 253.774612,171.664169 250.455627,169.281189 
z"/>
<path fill="#F88A35" opacity="1.000000" stroke="none" 
	d="
M273.846497,107.055214 
	C271.788116,111.937279 266.984009,114.166695 263.219330,117.481171 
	C259.178162,121.039017 254.956116,124.391434 250.490295,127.915588 
	C250.081375,125.344940 250.813538,122.259872 249.699112,120.150314 
	C248.345779,117.588501 244.726410,119.902168 242.491577,118.892281 
	C237.196930,116.499672 232.138626,119.731064 226.937012,119.084846 
	C224.144882,118.737961 225.052872,121.251358 225.039764,122.660454 
	C224.954788,131.796341 224.981598,140.933243 224.901825,150.533707 
	C223.014984,158.219467 216.618713,161.492844 211.726471,166.024841 
	C210.294937,167.350967 208.342697,167.304810 206.567398,165.296844 
	C205.012848,152.251251 205.709564,139.559448 205.911560,126.873825 
	C205.930374,125.692680 206.305115,124.600487 207.548981,123.409576 
	C213.341110,122.134254 216.597137,117.737450 220.398544,114.509270 
	C224.721558,110.838150 230.253159,108.323242 232.970276,102.515930 
	C246.783066,101.365738 260.303772,102.811455 273.846497,107.055214 
z"/>
<path fill="#F88835" opacity="1.000000" stroke="none" 
	d="
M105.092476,214.415985 
	C111.098900,210.670883 115.412857,205.303940 120.948296,201.466888 
	C122.290825,200.536285 123.321709,199.145493 125.483582,199.024109 
	C129.334732,201.632523 133.376907,201.674759 137.532013,201.719955 
	C146.255814,201.814850 154.998352,201.111237 164.073181,202.381454 
	C167.150009,204.992249 166.142273,207.499786 164.013306,209.320862 
	C159.422104,213.248093 155.158401,217.647873 149.312134,220.598450 
	C141.219604,220.889053 133.423126,221.291718 125.671242,220.871643 
	C120.960258,220.616364 120.111183,223.088516 120.038452,226.595154 
	C119.911446,232.718170 120.003662,238.845749 120.026520,245.432892 
	C120.579010,246.852386 120.557098,247.900253 119.907425,248.676590 
	C116.835014,252.348038 113.004433,255.153793 109.035385,257.754150 
	C108.049881,258.399811 106.813843,258.191650 105.465073,257.259735 
	C102.872993,253.689377 103.536064,249.631393 103.272453,246.117950 
	C102.490036,235.689590 102.579941,225.156006 105.092476,214.415985 
z"/>
<path fill="#F78234" opacity="1.000000" stroke="none" 
	d="
M105.095634,257.420105 
	C111.110878,255.010452 114.876038,250.024033 119.863068,246.179520 
	C135.055099,245.938766 150.061157,245.983139 165.531006,246.096893 
	C168.291214,249.635559 165.800110,251.621292 163.631775,253.663177 
	C159.818115,257.254486 154.933502,259.598358 151.411530,264.128082 
	C145.093292,266.149323 138.923889,265.035339 132.826065,265.273163 
	C126.601929,265.515839 126.227859,266.026886 128.010223,272.054382 
	C128.990677,275.370056 130.929642,278.421112 130.786682,282.422272 
	C127.509712,288.177307 122.559860,291.610687 117.001022,294.839844 
	C110.379097,283.267212 106.610519,270.896240 105.095634,257.420105 
z"/>
<path fill="#F46830" opacity="1.000000" stroke="none" 
	d="
M369.063171,208.528046 
	C362.967133,211.273544 358.472321,215.760880 354.040344,220.775513 
	C338.947906,221.069016 323.936798,221.023193 308.461792,220.905640 
	C306.148529,218.159012 307.922546,216.305023 309.734100,214.920349 
	C313.799652,211.812805 317.165497,207.753021 322.032013,205.719147 
	C323.206207,205.228409 323.497070,203.960083 324.572144,202.879089 
	C330.055664,200.906616 335.413605,201.946213 340.692871,201.722916 
	C346.474457,201.478348 346.923828,200.971558 345.266174,195.658890 
	C344.772736,194.077591 344.170166,192.508911 344.413757,190.414703 
	C346.874573,185.623566 351.086853,183.221466 354.991150,180.512009 
	C356.276398,179.620071 357.793243,179.539108 359.523438,180.725266 
	C364.546814,189.477997 367.383362,198.594589 369.063171,208.528046 
z"/>
<path fill="#F4642F" opacity="1.000000" stroke="none" 
	d="
M224.901276,347.534729 
	C222.601517,347.871002 221.064606,349.261444 219.640564,350.613647 
	C214.272293,355.711060 207.231979,358.943604 203.036865,365.771362 
	C195.942917,365.345642 189.639160,362.334808 183.288879,359.611847 
	C177.964432,357.328735 172.873611,354.500763 167.404129,351.654785 
	C168.315826,345.517700 174.115555,343.954926 177.627136,340.253021 
	C178.255997,339.590057 179.263412,339.176849 180.522217,338.648438 
	C185.042953,337.754272 188.016510,340.794556 191.583740,341.922394 
	C194.415146,342.817596 197.110733,344.167175 199.921661,345.152191 
	C204.507858,346.759308 205.522888,345.999054 205.720703,341.225891 
	C205.871002,337.598938 205.319077,333.924927 206.607468,330.029907 
	C210.437943,326.714630 214.135605,323.796051 217.711823,320.727264 
	C219.568436,319.134094 221.464676,317.475220 224.537521,318.753235 
	C224.878967,328.356293 224.924622,337.713440 224.901276,347.534729 
z"/>
<path fill="#F56E31" opacity="1.000000" stroke="none" 
	d="
M181.228668,339.605377 
	C176.687424,343.652222 172.261597,347.345978 167.482330,351.217651 
	C155.990189,344.127838 145.366898,336.254333 136.938110,325.398254 
	C138.474350,318.533081 143.620895,315.833130 149.555511,313.543579 
	C151.929688,313.557556 153.356476,314.709839 154.625427,316.044617 
	C161.637802,323.420685 169.579346,329.634247 178.172592,335.051331 
	C179.731827,336.034271 181.159790,337.194275 181.228668,339.605377 
z"/>
<path fill="#F67832" opacity="1.000000" stroke="none" 
	d="
M300.841187,137.467819 
	C304.335052,132.740906 310.168976,130.942398 312.912689,125.489304 
	C324.540009,132.460342 334.275848,141.741882 342.965393,152.641693 
	C343.227142,157.271362 339.036224,158.135498 336.907471,160.647720 
	C335.520325,162.284790 333.669495,163.399811 331.522949,164.672501 
	C328.053101,165.157196 326.261841,163.057251 324.639801,160.995819 
	C319.165405,154.038513 312.413391,148.505142 305.352997,143.295258 
	C303.371185,141.832886 301.117554,140.615952 300.841187,137.467819 
z"/>
<path fill="#F67832" opacity="1.000000" stroke="none" 
	d="
M150.281708,314.629486 
	C145.001099,317.035278 141.636047,321.383087 137.184875,324.873932 
	C128.110397,316.620514 121.851639,306.489594 116.763962,295.165039 
	C119.344398,289.734161 124.391617,287.004944 128.816010,283.138245 
	C131.342911,282.378876 132.437881,283.932556 133.233765,285.583160 
	C137.574203,294.584778 143.242569,302.724823 149.279800,310.632874 
	C150.109940,311.720276 150.713257,312.865112 150.281708,314.629486 
z"/>
<path fill="#F57031" opacity="1.000000" stroke="none" 
	d="
M330.683380,164.383423 
	C333.618958,159.232376 338.515594,156.743835 342.815308,153.128342 
	C350.000580,161.269943 355.500397,170.444855 359.894012,180.630676 
	C353.988892,181.732697 351.305542,187.385544 346.189697,189.865326 
	C343.664001,190.588104 342.583710,189.043304 341.753601,187.391663 
	C338.619537,181.155960 335.293365,175.043991 331.229828,169.347351 
	C330.261383,167.989731 329.634766,166.400299 330.683380,164.383423 
z"/>
<path fill="#F78234" opacity="1.000000" stroke="none" 
	d="
M149.461166,220.905716 
	C151.325195,215.286987 156.916962,213.035370 160.884323,209.145676 
	C162.292542,207.765045 164.113724,206.812469 164.914490,204.489990 
	C165.904602,201.771667 168.048309,201.906113 170.004440,201.802246 
	C173.982178,201.591003 177.970078,201.623993 181.948044,201.715576 
	C185.697800,201.801956 188.533875,200.643738 190.966522,197.566666 
	C193.728027,194.073624 196.899368,190.834290 200.687637,188.360794 
	C204.355652,185.965790 205.823425,182.746170 205.805420,178.297226 
	C205.789230,174.299973 204.462952,169.968079 207.785568,166.154633 
	C213.931366,161.523956 219.291306,156.610962 224.526276,151.113739 
	C224.886856,164.323502 224.899597,177.649796 225.024933,190.975052 
	C225.058548,194.548386 223.263565,197.213211 220.506058,198.701538 
	C212.411667,203.070374 205.711136,208.611832 201.352692,216.952698 
	C199.794159,219.935287 196.618744,221.110336 192.912567,221.065506 
	C178.585129,220.892258 164.254501,220.984726 149.461166,220.905716 
z"/>
<path fill="#F46730" opacity="1.000000" stroke="none" 
	d="
M266.902344,302.535217 
	C260.689880,305.855499 256.434937,311.270386 250.488129,314.915527 
	C250.109039,303.687531 250.160049,292.375427 249.949310,281.068176 
	C249.858124,276.176331 253.243317,273.971313 256.635956,272.198944 
	C265.440857,267.599182 271.402679,260.767365 275.240021,251.653275 
	C276.814117,247.914566 280.207306,245.921387 284.638062,245.960190 
	C297.447998,246.072418 310.259399,246.017731 323.534332,246.097656 
	C323.186218,251.958405 317.417328,253.219833 314.164764,256.781372 
	C312.516388,258.586365 310.181305,259.766632 309.081879,262.509979 
	C303.027740,262.890167 296.840179,261.985992 291.144867,263.268188 
	C285.141327,264.619843 284.483246,272.298248 279.787506,275.883850 
	C276.035828,278.748596 273.245209,282.865082 268.872711,285.004944 
	C266.955292,285.943298 266.986908,287.450928 266.991577,289.127289 
	C267.003540,293.442139 266.979889,297.757050 266.902344,302.535217 
z"/>
<path fill="#F67832" opacity="1.000000" stroke="none" 
	d="
M214.323441,258.086945 
	C202.986893,247.029922 202.169067,227.807297 212.420166,216.018387 
	C219.397629,207.994186 228.001938,203.674652 238.669113,204.037292 
	C248.537125,204.372772 256.519958,208.709763 262.917908,216.591324 
	C263.590942,220.026047 261.234497,221.573090 259.356323,223.203262 
	C256.910370,225.326279 254.375275,227.358856 251.517883,229.529877 
	C249.055817,229.966461 247.892593,228.400223 246.476944,227.297592 
	C240.106979,222.336136 234.881866,222.148163 229.366592,226.651978 
	C224.582657,230.558548 223.651123,236.781387 226.993713,243.267334 
	C227.695419,244.628967 228.320770,245.924545 228.053162,247.843536 
	C224.227783,252.405121 220.412704,256.517059 214.323441,258.086945 
z"/>
<path fill="#F57031" opacity="1.000000" stroke="none" 
	d="
M214.091644,258.424561 
	C217.513062,254.033951 221.821808,250.890961 226.769287,248.036285 
	C228.742538,246.318787 230.530930,247.067429 232.206604,247.743195 
	C242.317184,251.820663 252.559525,242.316727 249.859589,232.888931 
	C249.533676,231.750916 249.661163,230.578033 250.676758,229.336853 
	C253.021393,223.407684 258.958252,221.541916 262.822357,217.143738 
	C273.966156,232.226791 270.395966,247.618347 261.105835,258.286865 
	C249.676880,271.411560 226.414383,271.691650 214.091644,258.424561 
z"/>
<path fill="#F57031" opacity="1.000000" stroke="none" 
	d="
M324.817291,203.767273 
	C322.146454,209.672974 316.081024,211.644775 312.054688,215.884201 
	C310.719482,217.290070 308.875610,218.210983 308.081421,220.510742 
	C299.001984,220.888992 290.005768,220.914246 281.010406,221.013397 
	C277.261322,221.054703 274.832703,219.004562 273.044220,216.071823 
	C271.143738,212.955490 268.913879,210.151443 266.071960,207.411224 
	C265.371857,205.575775 265.484497,203.983093 266.713959,202.998734 
	C270.519775,199.951630 273.456635,195.754272 278.746521,194.090103 
	C280.933929,194.323166 282.354980,195.341263 283.240509,196.696136 
	C286.172699,201.182556 290.434631,201.859909 295.332489,201.733719 
	C302.928162,201.538040 310.534576,201.597977 318.134460,201.737595 
	C320.389252,201.779007 322.835266,201.384003 324.817291,203.767273 
z"/>
<path fill="#F67A33" opacity="1.000000" stroke="none" 
	d="
M151.177734,263.233704 
	C152.959183,257.661926 158.003830,255.575333 161.773468,252.245468 
	C163.562943,250.664749 165.193863,249.179459 165.920044,246.502380 
	C174.423904,246.111771 182.852982,246.049774 191.282166,246.006195 
	C194.992081,245.987015 197.291122,248.170990 199.004135,251.136566 
	C200.455856,253.649811 201.801605,256.224274 203.423615,259.030396 
	C202.898743,265.641418 196.532776,271.219025 189.463165,271.223083 
	C184.907669,265.507904 179.121140,264.851105 172.746719,265.256012 
	C167.642349,265.580292 162.497299,265.411316 157.373444,265.258514 
	C155.268997,265.195740 153.005127,265.493744 151.177734,263.233704 
z"/>
<path fill="#F67A33" opacity="1.000000" stroke="none" 
	d="
M278.195557,194.491928 
	C275.394073,200.040833 269.695251,202.118317 266.119080,206.811218 
	C262.744476,204.325699 259.631989,201.587463 255.638031,199.751556 
	C251.785736,197.980774 249.806061,194.471786 249.948593,189.862625 
	C250.153931,183.222107 250.013199,176.570892 250.092834,169.460358 
	C253.654724,169.254623 255.994827,167.090973 258.410156,165.085175 
	C260.687622,163.193863 262.835266,161.057022 266.463257,161.004608 
	C269.197296,161.904160 269.094147,164.021912 269.198334,165.972397 
	C269.400726,169.760742 269.520325,173.573975 269.245514,177.343475 
	C268.885651,182.279510 270.466125,185.999283 274.712372,188.634109 
	C276.699097,189.866898 278.478668,191.387405 278.195557,194.491928 
z"/>
<path fill="#F57031" opacity="1.000000" stroke="none" 
	d="
M189.930099,270.280670 
	C195.706390,268.189209 199.550201,264.209045 203.406921,259.608215 
	C206.966125,264.243011 211.023117,268.618500 216.472061,270.976257 
	C224.400848,274.407043 226.068436,280.440704 224.902222,288.544922 
	C221.551529,293.034943 217.398941,296.087433 213.277390,299.169891 
	C211.712189,300.340485 209.977432,300.684692 207.769196,299.736206 
	C205.351105,297.542175 205.775131,294.897705 205.781555,292.467194 
	C205.790268,289.164764 204.539764,286.887482 201.809265,284.945587 
	C197.892960,282.160431 194.056183,279.200531 191.320404,275.085083 
	C190.386795,273.680634 189.248016,272.447968 189.930099,270.280670 
z"/>
<path fill="#F46830" opacity="1.000000" stroke="none" 
	d="
M207.720612,299.253845 
	C212.458603,298.506287 214.726669,294.901611 217.804321,292.588928 
	C219.785004,291.100525 221.484055,289.299011 224.476486,289.023071 
	C224.879669,298.688110 224.925873,308.379547 224.902695,318.535095 
	C220.101440,320.418976 217.398041,324.672241 213.440872,327.191437 
	C211.936844,328.148895 210.611908,329.371429 208.501587,329.923187 
	C206.614319,329.305389 206.035248,327.974182 205.947601,326.410156 
	C205.494034,318.316284 205.412262,310.221191 206.008102,302.129517 
	C206.083771,301.101929 206.546326,300.234833 207.720612,299.253845 
z"/>
<path fill="#000000" opacity="1.000000" stroke="none" 
	d="
M208.097031,165.533173 
	C208.110748,170.148331 207.603088,174.355469 208.108017,178.437347 
	C208.807144,184.088974 206.651886,187.771515 201.973892,190.541977 
	C197.675827,193.087433 194.361786,196.692169 191.569595,200.827560 
	C190.009872,203.137573 187.901764,204.205353 184.869202,204.080215 
	C178.564514,203.820068 172.241074,204.014236 165.461487,204.094177 
	C152.857071,204.110352 140.714554,203.911102 128.577087,204.078339 
	C124.547203,204.133865 124.435074,202.694672 125.895706,199.399261 
	C132.684341,180.404953 142.705597,163.815948 157.293686,150.263519 
	C171.063217,137.471512 187.110901,128.528671 205.088745,123.062729 
	C205.699127,122.877151 206.410049,123.022232 207.475281,123.032379 
	C207.926727,137.057480 207.976990,151.063370 208.097031,165.533173 
z"/>
<path fill="#000000" opacity="1.000000" stroke="none" 
	d="
M278.355103,195.024490 
	C277.169403,193.906097 276.482391,192.450317 275.392975,192.024948 
	C266.701263,188.631012 266.279572,181.623657 266.941162,173.869614 
	C267.278503,169.915543 266.987030,165.907837 266.907104,161.460449 
	C266.890106,149.541153 267.027527,138.085236 266.952087,126.630722 
	C266.929138,123.143219 267.799377,122.490501 271.263062,123.564377 
	C281.535889,126.749352 291.111755,131.338654 300.633636,136.966248 
	C311.877350,144.782181 322.005493,153.317932 330.647583,163.970825 
	C333.929871,170.389099 338.865204,175.496979 341.529266,181.971573 
	C342.626221,184.637543 344.047211,187.170197 345.638672,189.938660 
	C347.078888,193.645996 347.943909,197.288635 349.399078,200.677887 
	C350.736176,203.792160 349.349976,204.034119 346.877472,204.017609 
	C339.893707,203.970917 332.909363,204.014465 325.461182,204.094116 
	C313.718170,204.110092 302.435883,203.880539 291.161926,204.092316 
	C287.175903,204.167206 284.393982,203.468597 282.686462,199.489517 
	C281.955658,197.786560 280.042969,196.590775 278.355103,195.024490 
z"/>
<path fill="#000000" opacity="1.000000" stroke="none" 
	d="
M208.096298,298.539001 
	C208.119308,309.021637 208.073563,319.046051 208.097229,329.534515 
	C208.166626,336.569031 208.166626,343.139526 208.166626,349.982117 
	C198.527893,347.625854 190.101395,344.041718 181.478333,339.984741 
	C170.192520,332.686798 159.468063,325.174011 150.423599,315.093811 
	C141.730560,305.399261 134.817749,294.884125 129.362915,283.057312 
	C127.590767,276.272095 124.138206,270.248474 123.209335,262.972046 
	C132.200012,262.972046 141.134094,262.972046 150.531982,262.902618 
	C159.786011,262.888733 168.606659,263.409637 177.355820,262.837494 
	C183.270813,262.450714 187.423126,263.797699 190.003937,269.655212 
	C193.956436,275.216736 198.112091,280.133118 203.836014,283.342957 
	C207.230804,285.246674 208.577682,287.812256 208.053802,291.659912 
	C207.767563,293.762451 208.018738,295.938110 208.096298,298.539001 
z"/>
<path fill="#000000" opacity="1.000000" stroke="none" 
	d="
M250.645370,228.952972 
	C254.202774,239.434753 251.790634,246.023148 243.015701,249.954971 
	C237.686127,252.343018 232.603821,251.109421 227.489594,247.986740 
	C226.694595,244.781891 223.626297,243.200531 222.816605,239.935257 
	C220.659698,231.236923 226.855270,224.345444 231.996262,222.069366 
	C238.676758,219.111679 246.196884,221.950775 250.645370,228.952972 
z"/>
</svg>